<?xml version="1.0" encoding="UTF-8" standalone="yes"?><svg xmlns="http://www.w3.org/2000/svg" xmlns:xlink="http://www.w3.org/1999/xlink" width="297.000mm" height="210.000mm" viewBox="0.000000 0.000000 297.000000 210.000000" stroke-linejoin="round" stroke-linecap="round" fill="none" fill-rule="evenodd"><desc>Composer Export</desc><script type="text/ecmascript"><![CDATA[
if(typeof(top) != "undefined")
{
	top.ShowPaper = ShowPaper;
}
function ShowHotSpot(evt,hotspotid)
{
	var svgDocument = evt.target.ownerDocument;
	var strId = "hotspot."+hotspotid;
	var hotspot = svgDocument.getElementById(strId);
	if(hotspot)
		hotspot.setAttribute("opacity",".5");
}
function HideHotSpot(evt,hotspotid)
{
	var svgDocument = evt.target.ownerDocument;
	var strId = "hotspot."+hotspotid;
	var hotspot = svgDocument.getElementById(strId);
	if(hotspot)
		hotspot.setAttribute("opacity","0");

	var toolTip = svgDocument.getElementById('ToolTip');
	if(toolTip)
		toolTip.setAttribute("visibility","hidden");
}
function ShowToolTip(evt,hotspotid,strTooltip)
{
	if(strTooltip=="")
	return;

	// change text
	var svgDocument = evt.target.ownerDocument;
	var tiptext = svgDocument.getElementById('ToolTipText');
	if( !tiptext )
	return;
	tiptext.firstChild.nodeValue = " " + strTooltip + "  " ;

	// show tooltip before, else some refresh issue

	var toolTip = svgDocument.getElementById('ToolTip');
	if(!toolTip)
	return;

	toolTip.setAttribute("visibility","visible");
	toolTip.setAttribute("opacity",".95");

	// move tooltip
	// get viewbox

	var root = svgDocument.documentElement;
	var vbox = (root.getAttribute("viewBox")).split(' ');
	var x0 = parseFloat(vbox[0]);
	var y0 = parseFloat(vbox[1]);
	var vboxW = parseFloat(vbox[2]);
	var vboxH = parseFloat(vbox[3]);

	// get default width of svg

	var strW = root.getAttribute("width");
	var svgW = parseFloat(strW);
	if(strW.indexOf('mm') != -1)
	svgW *= 3.779;

	var strH = root.getAttribute("height");
	var svgH = parseFloat(strH);
	if(strH.indexOf('mm') != -1)
	svgH *= 3.779;  	// 96 dpi  -> 96/25.4 = 3.779

	// update the viewbox / width / height if svg is embedded in html with zoom fit all
	var realx0 = x0;
	var realy0 = y0;
	var realvboxW = vboxW;
	var realvboxH = vboxH;
	var realsvgW = svgW;
	var realsvgH = svgH;

	if ((typeof(top) == "undefined") || (typeof(top.svgctl1) != "undefined")) // embedded in html
	{
		// get window size in pxl

		svgW = window.innerWidth;
		svgH = window.innerHeight;

		// calculate real viewbox

		realsvgW = svgW;
		realsvgH = svgH;
		if((svgW / svgH) > (vboxW / vboxH))
		{
			realvboxW = (vboxH * svgW) / svgH;
			realvboxH = vboxH;
			realx0 = x0 - (realvboxW - vboxW)/2 ;
		}
		else
		{
			realvboxH = (vboxW * svgH) / svgW;
			realvboxW = vboxW;
			realy0 = y0 - (realvboxH - vboxH)/2 ;
		}
	}

	// get user zoom/pan

	var newScale = root.currentScale;
	var translation = root.currentTranslate;

	// transform pxl to user unit

	var xPos = (((evt.clientX+10- translation.x)/newScale) * realvboxW)/realsvgW  + realx0 ;
	var yPos = (((evt.clientY+5- translation.y)/newScale) * realvboxH)/ realsvgH  + realy0 ;
	var scaleForWidth = ( (1 / newScale) * realvboxH) / realsvgH;

	// move tooltip

	toolTip.setAttribute("transform", "translate(" + xPos + "," + yPos + ")" );

	// resize tooltip

	var fontsize = 12;
	tiptext.setAttribute("font-size",fontsize*scaleForWidth);
	tiptext.setAttribute("y", fontsize*scaleForWidth);
	var tipBG = svgDocument.getElementById('ToolTipBG');
	var outline = tiptext.getBBox();
	if(tipBG)
	{
		tipBG.setAttribute("stroke-width", 1*scaleForWidth);
		tipBG.setAttribute("width", Number(outline.width) );
		tipBG.setAttribute("height", Number(outline.height) + fontsize*.5*scaleForWidth );
	}
	var ToolTipShadow = svgDocument.getElementById('ToolTipShadow');
	if(ToolTipShadow)
	{
		ToolTipShadow.setAttribute("width", Number(outline.width) );
		ToolTipShadow.setAttribute("height", Number(outline.height) + fontsize*.5*scaleForWidth );
		ToolTipShadow.setAttribute("x", 3*scaleForWidth);
		ToolTipShadow.setAttribute("y", 3*scaleForWidth);
	}
}
function ShowPaper()
{
  var svgDocument = getDocument();
  var paper = svgDocument.getElementById("paperID");
  if(paper)
  {
    paper.setAttribute("transform","scale(1)");
    paper.setAttribute("opacity","1");
    paper.setAttribute("visibility","visible");
  }
  var svg = svgDocument.getRootElement();
  if(svg)
  {
    svg.setAttribute("width","307.000mm");
    svg.setAttribute("height","220.000mm");
    svg.setAttribute("viewBox","-5.000000 -5.000000 307.000000 220.000000");
  }
}
]]></script><defs><mask id="mask0" x="0" y="0" height="100%" width="100%"><image x="6.972216" y="6.111113" height="15.707361" width="51.419380" xlink:href="GearBox_files/8960c3bd34296813_mask_0.jpg"/></mask><mask id="mask1" x="0" y="0" height="100%" width="100%"><image x="268.039398" y="187.440399" height="18.243120" width="25.044010" xlink:href="GearBox_files/8960c3bd34296813_mask_1.jpg"/></mask><mask id="mask2" x="0" y="0" height="100%" width="100%"><image x="228.500000" y="190.555618" height="15.593321" width="35.277779" xlink:href="GearBox_files/8960c3bd34296813_mask_2.jpg"/></mask></defs><g><path style="stroke:#000000;stroke-width:0.176;fill:#000000;fill-opacity:0.098;fill-rule:evenodd" d="M170.28,97.88L171.03,98.26L173.51,100.49L174.71,102.98L175.19,105.45L175.19,110.45L174.46,113.90L172.73,118.57L170.76,122.02L168.30,125.47L165.61,128.20L162.42,130.66L158.63,132.54L157.14,132.77L154.02,132.77L152.56,132.51L146.16,128.57L144.41,126.14L144.12,125.09L148.39,127.42L148.10,126.14L148.10,120.51L148.37,119.98L149.02,120.00L149.52,117.52L150.82,113.64L153.31,109.00L155.16,106.41L157.63,103.47L161.33,100.52L164.54,99.06L165.11,98.86L165.04,98.04L165.76,97.81zM163.89,105.92L168.81,108.63L169.29,109.63L169.13,114.48L168.87,115.21L168.72,115.34L168.79,115.88L168.87,115.21L169.13,114.48L169.54,113.66L170.02,108.63L170.27,109.64L170.02,113.40L169.29,116.12L167.81,119.07L166.08,121.53L163.89,123.77L161.07,125.62L159.12,126.13L157.87,126.13L160.92,125.22L163.56,123.37L163.61,123.14L163.33,123.14L162.32,123.92L160.11,124.91L157.24,124.88L156.01,124.14L154.99,122.45L154.76,121.20L154.80,117.77L154.21,118.12L154.25,116.59L155.91,112.59L158.10,109.36L160.59,106.92L162.56,105.70L163.61,105.44zM79.20,24.69L80.91,25.44L82.63,26.67L84.62,28.62L86.60,31.57L88.05,34.79L89.03,39.72L89.03,47.18L88.54,50.63L87.55,54.81L85.34,61.46L84.44,63.02L84.77,61.87L86.82,56.29L88.05,50.63L88.54,46.20L88.54,43.16L87.81,38.73L86.32,35.04L83.39,29.85L81.65,27.90L78.94,26.18L76.48,25.44L71.97,25.44L70.48,25.68L66.63,27.00L61.87,29.38L56.95,33.07L54.23,35.76L53.44,36.21L55.70,33.79L59.73,30.44L64.42,27.49L69.08,25.51L71.97,24.70L73.69,24.46L77.71,24.46zM53.40,36.41L51.85,38.09L51.85,37.61L53.44,36.21zM51.40,38.78L50.22,39.88L50.51,39.19L51.40,38.50zM50.15,40.30L49.48,40.86L49.76,40.16L50.22,39.88zM49.41,41.28L48.50,42.10L48.79,41.40L49.48,40.86zM122.30,45.35L123.28,47.10L123.24,48.59L124.00,50.30L125.01,50.79L125.76,50.83L125.75,51.09L125.36,51.51L123.99,54.32L122.50,56.78L120.30,59.49L118.82,60.72L115.55,62.38L113.64,62.38L109.61,60.14L110.94,58.50L111.68,56.29L112.09,53.26L113.40,50.13L115.15,47.70L117.34,45.70L119.47,44.63L121.07,44.40zM48.48,42.32L46.33,45.60L45.54,46.53L46.09,45.35L48.18,42.27L48.50,42.10zM45.51,46.74L44.97,47.70L44.93,47.19L45.54,46.53zM149.11,49.31L149.84,50.79L149.84,54.08L148.83,57.02L148.83,57.94L150.11,60.12L151.98,63.44L153.27,63.34L154.28,63.59L155.54,65.04L156.00,66.32L155.97,68.99L155.48,70.96L155.18,71.47L154.77,72.80L151.96,76.39L150.51,77.39L150.33,79.68L150.24,84.10L152.31,84.75L152.77,85.73L151.31,91.49L148.84,98.13L148.84,99.31L149.85,101.25L149.85,103.32L147.51,106.89L145.42,111.20L144.18,111.93L141.13,112.33L140.65,112.58L136.30,117.83L131.56,122.45L130.38,122.44L128.67,121.43L128.34,121.42L123.64,124.14L123.24,124.96L123.24,126.12L122.27,128.67L120.23,132.05L118.56,133.57L116.75,134.74L116.07,134.76L115.85,135.04L113.64,135.00L110.21,133.01L105.43,132.76L104.95,133.01L103.09,135.34L101.13,136.83L99.28,137.47L98.64,137.47L97.16,136.95L89.05,132.26L88.26,131.29L88.28,130.79L95.94,135.31L96.59,132.04L97.42,129.58L96.71,127.56L88.80,122.91L86.57,119.23L85.57,117.03L85.58,116.26L92.73,120.50L93.20,120.55L94.38,118.26L96.91,114.39L98.16,111.16L98.63,111.08L98.88,112.34L99.87,116.02L101.13,116.59L100.52,111.10L100.85,110.21L100.85,104.54L101.82,99.36L103.55,93.71L106.27,87.56L109.00,82.66L111.71,78.72L113.55,76.38L117.12,72.31L120.79,69.09L123.91,66.80L126.70,65.40L128.09,64.33L132.29,62.87L134.50,62.37L140.74,62.37L137.29,61.13L135.31,60.89L133.02,60.89L131.05,61.14L127.61,62.14L126.85,62.21L126.94,61.74L129.32,58.18L130.88,55.05L131.78,53.99L132.27,53.74L134.99,53.26L140.66,53.03L142.25,52.40L143.46,50.90L145.33,49.32L146.55,48.82L148.11,48.56zM44.54,48.45L43.74,49.91L43.71,49.41L44.40,48.31zM116.87,64.81L120.07,66.15L116.03,69.51L113.92,71.58L111.09,74.91L109.24,77.24L107.14,80.31L104.05,85.59L101.34,91.74L99.61,97.39L98.31,104.49L97.64,104.49L92.97,101.73L92.97,103.23L92.73,107.01L91.99,109.47L91.00,111.44L88.78,114.87L87.77,116.88L87.49,116.88L87.33,116.01L86.33,115.29L85.34,115.07L84.38,115.66L83.52,116.01L80.89,116.05L77.73,114.29L76.69,113.07L76.71,112.57L78.96,113.90L79.18,110.93L79.85,108.65L80.80,106.65L82.40,104.31L84.36,102.57L86.47,100.75L87.57,98.89L87.73,97.79L88.28,97.78L92.98,100.55L93.38,100.54L95.92,92.23L97.42,88.22L96.93,86.47L89.06,81.78L88.77,81.52L88.48,81.55L87.56,83.87L85.82,89.27L85.26,91.66L84.37,97.66L83.35,99.13L83.54,95.85L84.59,90.25L86.50,84.04L88.06,80.41L88.31,80.32L91.27,82.03L95.94,84.59L96.83,80.58L98.06,78.12L99.64,76.25L101.34,74.75L103.22,73.93L106.18,73.44L108.02,71.09L110.59,68.01L115.12,63.64L115.62,63.57zM84.44,63.27L83.84,64.66L83.85,63.91L84.44,63.02zM83.19,65.93L82.06,68.28L81.48,68.93L82.92,65.87zM107.78,57.07L102.49,61.38L100.50,63.33L95.60,69.01L94.59,69.01L97.05,65.79L99.78,62.61L103.80,59.00L108.17,55.71L108.26,55.73zM81.34,69.52L80.75,70.16L81.17,69.11L81.48,68.93zM80.42,70.85L80.40,70.35L80.75,70.16zM80.00,71.61L79.51,72.13L79.70,71.51zM79.45,72.56L79.02,72.86L79.18,72.29L79.51,72.13zM79.01,73.11L78.70,73.55L78.68,73.06L79.02,72.86zM78.28,74.07L77.79,74.59L77.98,73.98zM77.77,74.83L77.47,75.28L77.45,74.78L77.79,74.59zM77.04,75.79L76.47,76.49L76.47,76.00L77.00,75.67zM42.83,51.67L42.01,53.58L39.79,59.24L38.25,65.08L37.58,69.34L37.58,76.89L38.06,79.86L38.56,81.33L39.80,84.27L40.78,85.75L42.53,87.70L44.22,88.96L47.18,90.44L50.14,91.17L54.49,91.17L57.51,90.50L59.90,89.69L62.72,88.32L66.03,86.22L68.26,84.51L68.68,84.44L68.50,84.75L64.69,87.58L59.90,90.18L55.48,91.67L52.27,92.15L49.65,92.15L46.67,91.68L43.73,90.43L41.04,88.69L39.30,86.74L37.57,84.29L37.08,83.06L36.84,81.08L36.84,71.55L37.50,66.30L38.99,60.65L41.27,54.32L42.78,51.54zM76.02,77.19L75.08,78.04L75.37,77.35L76.02,76.90zM75.01,78.46L73.51,79.94L73.51,79.46L75.08,78.04zM71.87,81.69L71.45,82.32L70.97,82.32L71.83,81.58zM69.38,84.15L68.68,84.44L70.27,82.76L70.56,82.76zM203.02,92.39L204.03,93.88L204.01,94.46L203.50,94.41L201.07,92.90L196.30,95.62L194.12,101.10L194.14,101.74L197.12,103.47L197.82,103.56L199.07,101.34L199.98,97.81L203.75,95.92L204.76,95.10L205.74,96.32L206.97,98.05L206.95,98.87L206.45,100.84L205.12,103.70L203.75,105.28L200.47,106.95L199.81,106.95L198.10,105.92L195.37,105.94L194.41,105.68L192.69,104.20L192.36,103.44L193.18,103.57L193.16,100.84L194.07,97.81L195.51,95.32L197.03,93.63L199.07,92.23L199.97,91.90L202.28,91.90zM192.20,99.09L192.20,99.37L191.69,99.33L184.53,95.08L184.54,94.60zM235.02,110.86L236.04,111.56L236.78,113.10L236.74,113.42L236.28,113.33L233.78,111.82L233.46,111.82L229.12,114.41L226.87,119.80L226.80,120.52L230.10,122.46L230.61,122.32L232.31,118.82L232.79,116.60L235.40,115.51L237.38,114.05L237.75,114.26L239.72,117.02L239.20,119.80L237.49,123.27L236.39,124.14L234.03,125.47L232.54,125.91L230.84,124.88L228.12,124.91L226.17,123.89L225.12,122.66L225.10,122.39L225.92,122.52L225.90,119.80L226.64,117.09L228.50,113.78L230.58,111.93L231.74,111.11L233.21,110.60zM224.97,118.01L224.93,118.34L224.46,118.25L217.28,114.03L217.28,113.56zM168.79,115.88L168.72,115.34L168.87,115.21zM165.92,120.85L165.60,121.31L165.60,120.77L165.87,120.71zM170.03,148.77L171.29,150.50L171.27,151.08L170.76,151.03L168.32,149.51L163.56,152.23L161.59,157.40L161.40,158.36L164.38,160.09L165.26,160.10L166.82,156.73L167.31,154.51L168.48,153.95L170.91,152.69L172.01,151.72L172.26,151.92L174.22,154.67L174.21,155.74L173.47,158.45L172.14,160.82L170.16,162.53L167.73,163.57L167.07,163.57L165.35,162.54L162.38,162.57L160.69,161.56L159.93,160.83L159.93,160.11L160.42,160.19L160.41,157.71L160.90,155.49L162.41,152.57L163.86,150.81L165.59,149.34L167.22,148.51L169.55,148.51zM159.46,155.71L159.46,155.99L158.95,155.95L151.79,151.70L151.80,151.22zM202.54,167.47L203.51,168.46L204.00,170.04L203.54,169.95L201.07,168.47L196.38,171.02L194.88,174.70L194.07,177.15L197.36,179.09L197.83,179.14L199.25,176.35L200.05,173.22L203.01,171.99L204.76,170.67L205.00,170.88L206.97,173.63L206.95,174.45L206.39,176.60L204.73,179.87L203.40,181.00L202.03,181.84L199.80,182.53L198.10,181.50L195.37,181.53L193.18,180.27L192.61,179.27L193.19,179.36L193.17,176.67L193.58,174.62L195.13,171.49L196.51,169.68L198.26,168.22L199.73,167.48L201.27,167.22zM192.19,174.67L192.23,174.92L188.76,173.12L184.54,170.66L184.54,170.18zM120.78,49.08L120.79,51.62L120.54,52.35L119.21,54.71L117.73,55.94L116.27,56.47L115.14,56.20L114.65,55.71L114.37,55.00L114.30,54.00L116.40,53.14L117.08,51.75L115.30,52.29L114.55,52.29L115.51,50.28L117.01,48.58L118.60,47.84zM153.55,68.00L153.54,70.33L152.97,71.98L151.58,73.79L150.08,75.03L149.58,73.22L149.58,71.79L151.09,69.36L152.45,67.50L152.79,67.51zM131.60,77.90L132.10,78.38L138.77,82.30L139.25,84.52L139.25,88.79L139.00,90.75L137.78,95.19L136.47,98.07L133.83,102.56L130.39,106.76L127.58,109.12L124.87,110.83L121.46,112.11L117.82,112.11L115.39,111.09L113.64,109.15L112.65,107.43L111.84,103.49L112.17,99.12L112.90,95.67L115.05,90.43L116.88,87.34L119.83,83.39L122.19,81.08L125.63,78.61L128.90,77.20L131.15,76.85zM206.22,98.80L206.21,99.86L205.90,101.28L204.97,103.06L203.65,104.69L201.72,105.71L200.67,105.67L200.92,105.44L202.27,105.03L203.50,104.05L204.74,102.33L205.48,100.61L205.72,98.56L205.73,97.78zM171.33,102.63L170.84,103.15L171.03,102.53zM170.78,103.58L170.35,103.88L170.52,103.31L170.84,103.15zM170.34,104.12L170.03,104.57L170.01,104.07L170.35,103.88zM88.03,105.71L88.30,106.69L88.06,108.50L86.99,110.62L85.34,112.42L83.53,113.09L82.40,112.82L81.91,112.33L81.63,111.62L81.64,109.70L82.09,108.37L82.36,108.38L83.06,109.97L83.52,109.90L84.18,108.81L85.11,107.26L84.76,104.97L85.86,104.46zM83.71,106.04L84.18,108.81L83.15,108.37L82.55,107.97L82.61,107.24L83.62,105.94zM153.75,113.65L156.44,109.13L157.00,109.22L155.64,111.33L154.03,114.64L153.60,115.21zM153.53,115.88L153.45,115.34L153.60,115.21zM238.77,117.16L238.95,118.82L238.46,120.54L237.37,122.40L236.26,123.51L234.95,124.41L232.94,124.40L234.45,124.17L235.78,123.27L237.48,121.28L238.44,118.23L238.40,116.97zM152.79,119.09L152.73,118.02L152.87,117.90zM171.01,118.57L169.53,121.03L168.30,122.78L168.31,122.04L171.20,117.22L171.48,117.22zM155.45,130.16L155.17,130.08L156.45,127.59L156.70,127.55zM120.79,127.19L120.22,128.59L118.31,131.11L117.03,131.80L115.26,131.86L115.50,131.27L117.97,126.58L118.26,126.14L120.81,125.39zM172.93,154.63L173.18,154.67L173.49,155.15L173.47,156.73L173.22,157.71L172.48,159.44L170.79,161.44L169.22,162.33L167.96,162.32L169.95,161.33L171.25,160.18L172.24,158.70L172.98,156.48zM205.67,173.58L205.92,173.62L206.23,174.11L206.22,175.69L205.65,177.34L204.24,179.62L202.29,181.12L200.51,181.30L200.21,181.00L201.71,180.79L203.48,179.60L204.74,177.90L205.72,175.19z"/><g id="Actor_4.0"><g style="stroke:#000000;stroke-width:0.176"><path d="M152.80,132.57L150.61,131.16L149.01,128.88L148.10,125.88L147.91,122.30L148.47,118.35L149.73,114.23L151.64,110.17L154.09,106.38L156.94,103.08L160.05,100.43L161.65,99.40L163.25,98.59L166.36,97.64L169.21,97.65L171.66,98.61"/><path d="M162.08,130.94L159.00,132.30L156.09,132.76L153.50,132.29L151.38,130.91L149.83,128.71L148.94,125.80L148.76,122.33L149.30,118.50L150.53,114.51L152.37,110.57L154.75,106.90L157.51,103.70L160.53,101.13L162.08,100.14L163.62,99.35L166.64,98.43L169.41,98.44L171.78,99.37L173.63,101.17L174.85,103.74L175.39,106.96"/><path d="M152.48,128.14L153.89,125.95L153.95,126.02L155.70,127.18L156.12,127.42L154.37,126.27L153.19,124.31L152.67,121.71L152.84,118.65L153.70,115.36L155.18,112.09L157.18,109.06L159.53,106.52L162.08,104.65L164.62,103.58L166.98,103.41L168.97,104.13L170.45,105.69L171.31,107.99L171.48,110.85L170.96,114.05L169.78,117.37L168.03,120.55L165.83,123.36L163.36,125.58L160.79,127.07L158.32,127.69L156.12,127.42L156.55,127.50L155.28,129.98L154.91,129.90L153.20,129.03L151.70,127.17L150.81,124.52L150.63,121.32L151.17,117.74L152.39,114.03L154.22,110.42L155.71,108.31L156.60,109.01L154.76,111.84L153.69,114.06L152.60,113.63"/><path d="M151.17,122.28L151.08,122.23L151.11,121.95L151.18,121.74L151.29,121.54L151.38,121.58L151.27,121.79L151.19,122.00L151.17,122.28L151.20,122.49L151.29,122.62L151.42,122.69L151.58,122.68L151.78,122.59L152.01,122.40L152.17,122.18L152.25,122.03L152.32,121.80L152.34,121.54L152.31,121.36L152.23,121.21L152.01,121.08L152.23,121.21"/><path d="M152.09,121.13L152.03,121.27L152.11,121.38L152.15,121.55L152.23,121.60L152.22,121.78L152.16,121.98L152.06,122.17L151.94,122.32L151.78,122.46L151.70,122.41L151.56,122.47L151.42,122.49L151.39,122.48L151.31,122.38L151.28,122.21L151.29,122.03L151.35,121.83L151.45,121.64L151.38,121.58"/><path d="M151.78,122.46L151.64,122.52L151.51,122.54L151.41,122.50L151.39,122.48"/><path d="M151.08,122.23L151.12,122.44L151.20,122.57L151.29,122.62"/><path d="M151.70,122.41L151.86,122.27L151.98,122.12L152.08,121.93L152.14,121.73L152.15,121.55"/><path d="M151.56,120.96L151.47,121.07L151.41,121.12L151.32,121.07L151.38,121.03L151.47,120.91L151.56,120.96L151.68,120.73L151.59,120.68L151.75,120.40L151.85,120.28L151.92,120.22L151.96,120.20L152.07,120.17L152.15,120.18L152.24,120.23L152.15,120.22L152.05,120.25L151.96,120.20"/><path d="M151.32,121.07L151.28,121.08L151.30,121.11L151.33,121.13L151.36,121.13L151.41,121.12"/><path d="M151.16,121.06L151.18,120.94L151.22,120.83L151.28,120.74L151.36,120.62L151.27,120.57L151.19,120.69L151.14,120.78L151.10,120.89L151.07,121.02L151.16,121.06L151.17,121.16L151.20,121.23L151.25,121.27L151.32,121.28L151.41,121.25L151.50,121.19L151.58,121.09L151.67,120.95L151.83,120.64L151.93,120.49L151.99,120.43L152.04,120.39L152.11,120.37L152.13,120.40L152.14,120.49L152.12,120.59L152.07,120.68L151.94,120.86L152.03,120.91L152.15,120.73L152.20,120.64L152.22,120.54L152.14,120.49"/><path d="M151.07,121.02L151.08,121.11L151.11,121.18L151.16,121.22L151.25,121.27"/><path d="M151.59,120.68L151.47,120.91"/><path d="M152.05,120.25L152.00,120.27L151.93,120.33L151.84,120.45L151.68,120.73"/><path d="M151.36,120.62L151.42,120.69L151.32,120.85L151.29,120.92L151.27,121.01L151.28,121.08"/><path d="M151.17,120.10L152.17,119.68L152.25,119.73L151.25,120.15L151.17,120.10L151.15,120.24L151.24,120.28L151.25,120.15"/><path d="M151.24,120.28L152.35,119.82L152.42,119.16L152.31,119.20L152.23,119.15L152.17,119.68"/><path d="M153.89,125.95L153.94,125.87L153.02,124.22L152.50,121.62L152.67,118.56L153.53,115.26L153.94,114.20L153.69,114.06"/><path d="M152.23,121.60L152.20,121.43L152.12,121.32L152.04,121.28"/><path d="M152.01,121.08L151.95,121.22L152.03,121.27"/><path d="M151.94,120.86L151.99,120.94L152.08,120.99L152.03,120.91"/><path d="M152.24,120.23L152.30,120.30L152.33,120.39L152.33,120.47L152.31,120.61L152.25,120.74L152.15,120.90L152.08,120.99"/><path d="M152.25,119.73L152.31,119.20"/><path d="M152.11,120.37L152.15,120.38L152.19,120.40L152.21,120.45L152.22,120.54"/><path d="M152.23,119.15L152.33,119.11L152.42,119.16"/><path d="M153.94,114.20L152.58,113.67"/><path d="M167.05,121.79L168.05,122.59L168.39,122.11L170.49,118.63L171.17,117.18L171.44,117.29L172.28,115.09L173.17,111.42L173.35,108.00L172.81,105.05L171.59,102.75L171.48,102.62L171.76,102.85L172.98,105.15L173.52,108.10L173.34,111.52L172.45,115.19L170.91,118.88L168.82,122.36L166.30,125.41L164.09,127.34L163.51,127.85L160.64,129.51L157.85,130.29L155.33,130.14L153.24,129.08L153.20,129.03"/><path d="M154.31,122.88L154.81,123.80L155.20,124.24L154.82,123.81L154.31,122.88L153.96,121.78L153.88,121.19"/><path d="M154.31,122.87L153.95,121.77L153.89,121.30L153.96,122.36L154.76,124.25L155.59,125.09L156.86,125.68L158.33,125.81L159.96,125.48L161.65,124.71L163.35,123.53L164.97,121.98L166.23,120.42L164.30,122.59L162.08,124.27L159.85,125.17L157.82,125.21L156.16,124.39L155.04,122.79L154.54,120.54L154.70,117.85L155.53,114.95L156.93,112.11L158.80,109.57L158.90,109.47L160.95,107.56L162.08,106.81L163.20,106.25L165.36,105.78L167.22,106.17L168.62,107.39L169.45,109.34L169.62,111.84L169.11,114.66L169.41,113.72L169.76,111.59L169.76,109.63L169.41,107.90L168.71,106.51L167.71,105.49L166.44,104.91L166.34,104.90L164.53,104.94L163.01,105.55"/><path d="M155.20,124.24L155.49,124.56L156.29,125.09L157.26,125.43L158.33,125.52L159.43,125.38L159.67,125.31L159.47,125.37L158.38,125.51L157.36,125.41L156.45,125.10L155.65,124.57L154.99,123.83L154.48,122.90L154.13,121.81L154.12,121.76L153.96,120.57L153.96,119.21L154.13,117.77L154.48,116.28L154.89,115.05L154.33,116.50L153.79,119.54L153.79,119.81L153.89,121.30"/><path d="M153.79,119.81L153.77,119.61L153.79,119.54"/><path d="M153.78,119.67L153.78,119.59"/><path d="M156.17,125.64L156.41,125.85L156.80,125.94L156.17,125.64L154.87,124.51L154.76,124.25"/><path d="M154.84,123.83L154.81,123.80"/><path d="M155.06,122.47L156.03,124.10L157.68,125.06L159.77,125.08L162.08,124.17L164.39,122.41L166.47,119.99L168.12,117.12L169.19,114.10L169.55,111.22L169.19,108.77L168.12,106.97L166.47,106.02L164.52,106.00"/><path d="M155.10,114.51L155.57,113.30L156.19,112.28L155.65,113.26L155.10,114.51L154.89,115.05L154.90,115.02"/><path d="M155.28,129.98L155.53,130.13L156.85,127.55L156.55,127.50"/><path d="M155.53,130.13L157.68,130.19L160.47,129.41L163.34,127.75L166.13,125.32L168.28,122.77L168.05,122.59"/><path d="M155.49,124.56L156.29,125.09"/><path d="M156.28,125.08L156.27,125.08"/><path d="M156.19,112.28L156.74,111.36L157.36,110.43L158.31,109.25L157.39,110.30L156.74,111.36"/><path d="M166.98,103.29L166.96,103.33L166.81,103.31L164.45,103.49L161.91,104.55L159.36,106.42L157.01,108.97L156.85,109.16L155.74,108.27L156.55,107.12L159.22,104.36L162.08,102.30L164.93,101.06L167.60,100.74L168.20,100.90L166.98,103.29L168.54,103.88L168.97,104.13L169.65,104.80L171.19,102.43L169.76,101.31L169.93,101.35L171.38,102.54L171.19,102.43"/><path d="M155.71,108.31L155.74,108.27"/><path d="M156.85,127.55L158.32,127.69"/><path d="M156.80,125.94L158.46,126.29L160.84,125.76L163.32,124.33L165.69,122.11L167.74,119.32L169.29,116.18L170.19,112.99L170.38,110.03L169.83,107.55L168.58,105.79L168.23,105.61L169.03,106.42L169.74,107.85L170.10,109.61L170.10,111.62L169.74,113.79L169.03,116.04L168.01,118.25L166.71,120.34L166.48,120.64L165.21,122.22L163.55,123.80L161.82,125.00L160.09,125.79L158.43,126.13L157.19,126.02"/><path d="M157.36,121.66L157.57,121.57L159.78,119.92L161.78,117.64L163.42,114.95L164.53,112.07L165.03,109.28L165.01,108.95"/><path d="M156.85,109.16L156.60,109.01"/><path d="M157.09,107.90L157.00,107.86L156.95,107.66L156.96,107.46L157.02,107.23L157.15,106.98L157.30,106.79L157.38,106.83L157.23,107.03L157.11,107.28L157.04,107.51L157.03,107.71L157.09,107.90L157.21,108.04L157.13,107.99L157.00,107.86"/><path d="M157.76,107.62L157.85,107.67L157.99,107.48L158.08,107.28L158.12,107.13L158.23,107.09L158.14,107.04L158.04,107.08L157.99,107.23L157.90,107.43L157.76,107.62L157.61,107.77L157.46,107.85L157.32,107.88L157.26,107.86L157.20,107.79L157.16,107.68L157.15,107.51L157.19,107.33L157.29,107.11L157.43,106.92L157.56,106.79L157.72,106.70L157.87,106.67L157.92,106.52L157.77,106.55L157.60,106.64L157.38,106.83"/><path d="M157.26,107.86L157.29,107.90L157.41,107.93L157.55,107.90L157.69,107.82L157.85,107.67"/><path d="M157.21,108.04L157.39,108.07L157.50,108.05L157.68,107.95L157.89,107.76L158.03,107.57L158.16,107.33L158.23,107.09"/><path d="M157.30,106.79L157.52,106.59L157.69,106.50L157.83,106.48L157.92,106.52"/><path d="M169.12,114.64L169.44,112.97L169.62,111.84L169.61,110.17L169.44,108.93L169.09,107.84L168.59,106.91L167.92,106.17L167.13,105.64L166.21,105.33L165.19,105.24L164.10,105.37L162.96,105.73L161.79,106.31L160.62,107.08L159.47,108.04L158.45,109.09"/><path d="M158.31,109.25L159.62,107.77L162.08,105.92L162.68,105.68L161.87,106.08"/><path d="M158.04,107.08L158.12,107.13"/><path d="M158.77,106.78L158.69,106.73L158.39,105.92L158.44,105.87L158.77,106.78L158.88,106.68L158.51,105.67L158.31,105.87L158.22,105.83L158.43,105.62L158.51,105.67"/><path d="M158.39,105.92L158.28,106.03L158.31,105.87"/><path d="M158.22,105.83L158.19,105.99L158.28,106.03"/><path d="M159.67,125.31L160.62,125.01L160.31,125.11"/><path d="M159.19,105.17L159.30,105.07L159.52,105.96L159.60,106.01L159.71,105.92L159.44,104.82L159.23,105.01L159.19,105.17L159.10,105.12L159.14,104.96L159.23,105.01"/><path d="M159.30,105.07L159.36,105.02L159.60,106.01"/><path d="M159.14,104.96L159.35,104.77L159.44,104.82"/><path d="M160.62,125.01L161.79,124.44L162.08,124.27L162.96,123.66L164.30,122.59"/><path d="M159.93,104.95L159.91,104.64L159.96,104.42L160.02,104.28L160.10,104.16L160.21,104.05L160.29,104.10L160.41,104.03L160.51,104.01L160.60,104.04L160.69,104.15L160.77,104.42L160.78,104.72L160.74,104.95L160.68,105.10L160.59,105.23L160.48,105.33L160.37,105.40L160.26,105.41L160.18,105.38L160.09,105.28L160.01,105.00L159.93,104.95L160.01,105.23L160.09,105.33L160.18,105.38"/><path d="M160.47,105.22L160.41,105.26L160.35,105.28L160.31,105.27L160.24,105.25L160.23,105.23L160.26,105.23L160.33,105.21L160.38,105.17L160.47,105.22L160.54,105.15L160.61,105.05L160.65,104.94L160.67,104.84L160.68,104.66L160.67,104.50L160.60,104.26L160.53,104.18L160.47,104.15L160.51,104.22L160.58,104.46L160.67,104.50"/><path d="M160.01,105.00L160.00,104.69L160.04,104.47L160.10,104.33L160.18,104.21L160.29,104.10"/><path d="M160.67,104.84L160.59,104.79L160.56,104.89L160.52,105.00L160.46,105.10L160.38,105.17"/><path d="M160.23,105.23L160.18,105.17L160.12,104.92L160.10,104.62L160.13,104.48L160.18,104.37L160.24,104.28L160.31,104.21L160.39,104.16L160.47,104.15"/><path d="M160.21,104.05L160.32,103.98L160.43,103.97L160.52,103.99L160.60,104.04"/><path d="M160.58,104.46L160.60,104.62L160.59,104.79"/><path d="M163.03,105.54L163.98,105.23L164.94,105.12L163.99,105.24L163.02,105.55L162.68,105.68"/><path d="M162.65,105.69L161.92,106.04"/><path d="M164.94,105.12L165.09,105.10L166.12,105.19L166.36,105.28L166.10,105.19L165.25,105.12"/><path d="M166.36,120.24L167.85,117.79L167.71,118.10L166.44,120.14L166.36,120.24L166.34,120.29L166.23,120.42"/><path d="M166.36,105.28L167.04,105.51L167.86,106.06"/><path d="M166.10,105.19L166.12,105.20"/><path d="M168.23,105.61L166.77,104.89L166.36,104.90"/><path d="M169.11,114.66L168.71,115.92L168.16,117.13L167.99,117.57L167.85,117.79"/><path d="M168.16,117.13L169.10,114.70"/><path d="M167.84,106.05L167.88,106.08L168.55,106.82L168.57,106.86L169.08,107.79L169.44,108.93"/><path d="M168.20,100.90L169.76,101.31"/><path d="M170.45,105.69L169.87,105.01L169.65,104.80"/><path d="M171.17,117.18L170.01,116.73"/><path d="M169.87,105.01L171.44,102.59L171.38,102.54"/><path d="M171.72,110.01L171.72,109.88L171.76,109.74L171.83,109.61L171.97,109.43L172.25,109.19L172.17,109.14L171.88,109.38L171.75,109.56L171.68,109.69L171.64,109.83L171.63,109.96L171.67,110.07L171.73,110.13L171.82,110.18L171.75,110.12L171.72,110.01L171.63,109.96"/><path d="M171.95,110.07L171.90,110.06L171.84,110.02L171.88,110.02L171.96,110.01L172.04,110.05L171.97,110.07L171.95,110.07"/><path d="M172.04,110.05L172.19,109.99L172.33,109.90L172.58,109.68L172.69,109.54L172.74,109.44L172.77,109.34L172.78,109.25L172.75,109.18L172.71,109.14L172.64,109.12L172.52,109.15L172.26,109.30L172.01,109.51L171.90,109.65L171.85,109.75L171.82,109.86L171.82,109.94L171.84,110.02"/><path d="M171.82,110.18L171.91,110.20L172.08,110.16L172.36,109.99L172.62,109.77L172.76,109.59L172.84,109.45L172.88,109.31L172.88,109.17L172.85,109.07L172.78,109.00L172.69,108.98L172.53,109.02L172.25,109.19"/><path d="M171.58,109.05L171.67,109.10L171.68,109.23L171.59,109.18L171.58,109.05L172.59,108.39L172.68,108.44L171.67,109.10"/><path d="M171.52,108.35L171.53,108.45L171.62,108.50L171.60,108.38L172.60,107.63L172.52,107.58L171.52,108.33L171.52,108.35"/><path d="M171.52,108.33L171.60,108.38"/><path d="M171.62,108.50L172.55,107.80L172.57,107.97L172.66,108.01L172.62,107.75L172.55,107.80"/><path d="M171.68,109.23L172.61,108.62L172.62,108.80L172.70,108.84L172.69,108.57L172.61,108.62"/><path d="M171.44,102.59L171.48,102.62"/><path d="M172.33,109.90L172.25,109.85L172.10,109.94L171.96,110.01"/><path d="M172.25,109.85L172.50,109.63L172.60,109.49L172.66,109.39L172.69,109.29L172.69,109.20L172.78,109.25"/><path d="M172.17,109.14L172.44,108.97L172.61,108.93L172.70,108.95L172.78,109.00"/><path d="M172.68,108.44L172.66,108.16L172.58,108.11L172.59,108.39"/><path d="M172.69,109.20L172.67,109.13"/><path d="M172.66,108.16L172.77,108.09L172.81,108.77L172.70,108.84"/><path d="M172.58,108.11L172.69,108.04L172.77,108.09"/><path d="M172.60,107.63L172.57,107.37L172.48,107.32L172.52,107.58"/><path d="M172.48,107.32L172.59,107.24L172.67,107.28L172.57,107.37"/><path d="M172.66,108.01L172.76,107.93L172.67,107.28"/></g><g style="stroke:#000000;stroke-width:0.529"><path d="M147.01,129.14L146.11,128.56L144.51,126.28L143.60,123.28L143.41,119.70L143.96,115.75L145.23,111.63L147.14,107.57L149.59,103.78L152.44,100.48L155.55,97.83L157.15,96.80L158.75,95.99L161.86,95.04L164.71,95.05L167.16,96.01L171.66,98.61L173.57,100.47L174.84,103.12L175.39,106.44L175.39,106.96L175.21,110.63L174.32,114.57L172.77,118.56L170.65,122.39L168.06,125.85L165.15,128.75L162.08,130.94L161.65,131.18L158.48,132.59L155.47,133.06L152.80,132.57L148.41,130.04"/><path d="M154.97,122.31L154.60,119.85L154.97,116.98L156.03,113.96L157.68,111.09L159.77,108.66L162.08,106.91L164.39,105.99L164.52,106.00L164.86,106.81L165.01,108.95L164.50,111.78L163.33,114.82L161.60,117.66L159.48,120.07L157.36,121.66L155.37,122.46L155.06,122.47L154.97,122.31"/></g></g><g id="Actor_2.0"><g style="stroke:#000000;stroke-width:0.176"><path d="M202.60,167.54L201.08,167.20L199.30,167.65L197.46,168.83L195.75,170.62L194.36,172.83L193.43,175.21L193.08,177.50L193.33,179.47L193.87,180.38"/><path d="M196.07,168.53L194.67,170.00L193.28,172.20L192.35,174.58L192.28,175.10"/><path d="M204.22,170.27L201.02,168.42L196.35,171.12L194.02,177.14L195.84,178.19"/><path d="M194.02,177.14L195.23,178.87"/><path d="M195.94,179.88L196.35,180.46L197.77,181.28"/><path d="M196.35,171.12L200.09,173.28L201.64,172.71L202.79,172.14L203.82,171.70L204.81,171.60L205.66,171.86L206.29,172.45L206.69,173.33L206.83,174.47L206.69,175.78L206.29,177.12L205.66,178.45L204.81,179.69L203.82,180.73L202.79,181.48L201.75,181.92L200.76,182.02L199.92,181.76L199.28,181.17L199.74,181.88L200.09,182.62"/><path d="M196.91,178.81L197.75,179.30L198.67,177.83L199.28,176.50L199.93,175.15L200.78,173.92L201.76,172.89L202.79,172.14L203.78,171.47L204.76,170.58"/><path d="M199.28,176.50L198.88,177.84L198.74,179.15L198.88,180.29L199.28,181.17L198.67,180.36L197.75,179.30"/><path d="M199.92,180.85L199.41,179.98L199.25,178.74L199.47,177.29L199.72,176.54L200.05,175.79L200.93,174.40L202.01,173.27L203.18,172.52L204.30,172.24L204.98,172.39L205.43,172.84L205.78,173.93L205.75,175.29L205.42,176.49L205.34,176.79L204.60,178.25L203.61,179.53L202.47,180.48L201.31,181.00L200.26,181.04L199.92,180.85L199.94,180.88L200.77,181.33L201.82,181.30L202.98,180.78L203.21,180.59L204.12,179.83L205.11,178.55L205.85,177.08L206.26,175.59L206.29,174.22L205.95,173.14L205.26,172.45L204.98,172.39"/><path d="M199.29,176.49L199.75,175.04L200.09,173.28"/></g><g style="stroke:#000000;stroke-width:0.529"><path d="M192.28,175.10L184.65,170.69L184.25,170.01L184.12,169.06L184.29,167.96L184.74,166.81L185.41,165.75L186.23,164.89L187.12,164.32L187.97,164.11L188.70,164.27L196.07,168.53"/><path d="M193.67,180.60L193.09,180.27L192.25,178.85L192.00,176.88L192.28,175.10"/><path d="M194.75,181.21L195.49,181.61L197.16,181.56L197.77,181.28L200.09,182.62L201.64,182.05L202.79,181.48L203.78,180.82L204.76,179.92L205.68,178.46L206.29,177.12L206.75,175.70L207.10,173.90L206.75,173.17L206.29,172.45L205.68,171.64L204.76,170.58L204.22,170.27"/><path d="M196.07,168.53L196.38,168.21L198.23,167.02L200.00,166.58L201.52,166.92L202.60,167.54L203.69,168.63L204.22,170.27"/></g></g><g id="Actor_1.0"><g style="stroke:#000000;stroke-width:0.176"><path d="M37.55,76.57L37.56,76.70"/><path d="M40.19,84.98L40.13,84.87"/><path d="M43.28,88.40L43.14,88.26"/><path d="M46.86,90.02L47.12,90.11"/><path d="M54.42,89.78L54.63,89.74"/><path d="M65.36,27.51L65.42,27.47"/><path d="M74.47,25.29L76.65,25.42"/><path d="M74.85,74.43L74.83,74.46"/><path d="M78.59,26.00L78.60,26.01"/><path d="M82.04,28.19L82.13,28.26"/><path d="M83.26,59.57L83.27,59.55"/><path d="M85.75,34.54L85.80,34.67"/></g><g style="stroke:#000000;stroke-width:0.529"><path d="M89.23,45.29L88.88,48.87L88.15,52.77L87.07,56.75L85.65,60.76L83.92,64.73L81.90,68.61L79.61,72.35L77.09,75.90L74.37,79.19L71.49,82.20L68.50,84.87L65.43,87.17L62.33,89.07L59.24,90.54L56.20,91.55L55.95,91.62L53.00,92.18L50.18,92.25L47.54,91.85L46.94,91.74L44.50,90.87L41.69,89.15L39.79,87.37L37.87,84.74L36.61,82.17L35.70,79.25L35.11,75.81L34.93,72.34L35.11,68.66L35.66,64.82L36.56,60.88L37.81,56.88L39.39,52.89L41.27,48.96L43.43,45.14L45.84,41.49L48.46,38.07L51.26,34.91L54.20,32.07L57.23,29.58L60.32,27.48L63.42,25.80L66.70,24.48L69.71,23.69L72.60,23.37L75.33,23.54L75.88,23.60L78.43,24.24L80.74,25.35L81.38,25.70L83.43,27.26L85.19,29.26L85.58,29.72L87.00,32.10L88.09,34.85L88.88,38.17L89.25,41.52L89.25,43.18"/><path d="M74.49,25.29L76.15,25.39L78.58,26.00L80.16,26.76L82.04,28.19L83.36,29.69L84.74,32.01L85.75,34.54L86.43,37.40L86.79,40.68L86.79,44.20L86.43,47.90L85.98,50.27L85.71,51.73L84.65,55.64L83.27,59.55L81.57,63.45L79.57,67.28L77.31,70.97L74.83,74.46L72.18,77.67L69.36,80.62L66.42,83.24L63.41,85.50L60.37,87.36L57.33,88.80L54.42,89.78L51.77,90.27L49.03,90.35L46.86,90.02L44.78,89.27L43.14,88.26L41.45,86.69L40.13,84.87L38.97,82.48L38.08,79.64L37.55,76.57L37.38,73.29L37.56,69.66L38.10,65.88L38.99,62.00L40.22,58.09L41.77,54.13L43.62,50.27L44.26,49.15L45.75,46.51L48.12,42.92L50.70,39.55L53.46,36.44L56.35,33.65L59.33,31.20L62.37,29.13L65.36,27.51L68.25,26.33L71.18,25.57L73.99,25.26L74.47,25.29"/></g></g><g id="Actor_2.1"><g style="stroke:#000000;stroke-width:0.176"><path d="M194.78,105.81L193.68,104.72L193.13,103.01L193.16,101.68L193.18,100.85L193.83,98.47L195.00,96.15L196.58,94.13L196.93,93.83L198.38,92.62L200.21,91.79L201.88,91.74L203.21,92.46"/><path d="M196.06,93.04L195.50,93.50L193.92,95.53L192.75,97.85L192.27,99.61"/><path d="M197.81,105.77L196.35,104.93L194.02,101.61L197.75,103.76L198.67,102.30L199.28,100.96L198.88,102.31L198.74,103.61L198.88,104.75L199.28,105.63L199.92,106.23L200.76,106.49L201.75,106.39L202.79,105.95L203.82,105.20L204.80,104.17L205.64,102.94L206.29,101.59L206.69,100.24L206.83,98.94L206.69,97.80L206.29,96.92L205.66,96.33L204.81,96.06L203.82,96.16L202.79,96.60L201.75,97.36L200.76,98.40L199.92,99.64L199.28,100.96L199.74,99.54L200.09,97.74L196.35,95.59L201.02,92.89L204.15,94.69"/><path d="M194.02,101.61L196.35,95.59"/><path d="M197.75,103.76L198.67,104.83L199.28,105.63L199.74,106.35L200.09,107.09"/><path d="M199.29,103.88L199.63,104.95L200.08,105.40L200.76,105.55L201.89,105.27L203.05,104.52L204.13,103.39L205.01,102.00L205.34,101.25L205.59,100.50L205.81,99.05L205.65,97.81L205.14,96.94L204.80,96.75L203.75,96.79L202.59,97.31L201.46,98.26L200.46,99.54L199.72,101.00L199.31,102.50L199.28,103.86L199.29,103.88"/><path d="M205.14,96.94L205.64,97.21L206.17,98.10L206.33,99.35L206.10,100.80L205.85,101.55L205.52,102.30L204.64,103.69L203.56,104.82L202.40,105.56L201.28,105.84L200.32,105.63L200.08,105.40"/><path d="M200.09,97.74L201.64,97.18L202.79,96.60L203.78,95.94L204.76,95.05"/></g><g style="stroke:#000000;stroke-width:0.529"><path d="M196.06,93.04L188.99,88.96L188.36,88.61L187.55,88.64L186.67,89.03L185.80,89.76L185.05,90.73L184.48,91.85L184.17,92.99L184.15,94.03L184.41,94.85L184.94,95.37L192.27,99.61"/><path d="M204.15,94.69L204.76,95.05L205.68,96.11L206.29,96.92L206.75,97.63L207.10,98.37L206.75,100.16L206.29,101.59L205.66,102.95L204.76,104.39L203.77,105.29L202.79,105.95L201.64,106.52L200.09,107.09L197.81,105.77L196.29,106.15L194.78,105.81L193.70,105.19L192.60,104.10L192.05,102.38L192.10,100.22L192.27,99.61"/><path d="M204.15,94.69L204.04,93.88L203.21,92.46L202.13,91.84L200.81,91.12L199.14,91.17L197.30,92.00L196.06,93.04"/></g></g><g id="Actor_2.2"><g style="stroke:#000000;stroke-width:0.176"><path d="M163.38,149.67L162.51,150.46L160.99,152.55L159.90,154.90L159.58,156.26"/><path d="M162.30,162.57L161.12,161.60L160.47,159.98L160.42,157.88L160.51,157.50L160.97,155.52L162.07,153.17L163.59,151.08L165.36,149.48L167.14,148.56L167.21,148.53L168.92,148.34L170.31,148.94"/><path d="M165.06,162.40L163.64,161.58L161.31,158.26L165.05,160.42L165.96,158.95L166.58,157.61L166.18,158.96L166.03,160.26L166.18,161.40L166.58,162.29L167.21,162.88L168.06,163.14L169.05,163.04L170.08,162.60L171.12,161.85L172.10,160.80L172.95,159.56L173.58,158.24L173.98,156.90L174.13,155.61L173.99,154.47L173.58,153.57L172.95,152.98L172.10,152.71L171.12,152.81L170.08,153.25L169.05,154.01L168.06,155.05L167.21,156.29L166.58,157.61L167.03,156.19L167.38,154.39L163.64,152.24L161.31,158.26"/><path d="M163.64,152.24L168.32,149.54L171.44,151.34"/><path d="M165.05,160.42L165.96,161.48L166.58,162.29L167.03,163.00L167.38,163.74"/><path d="M167.43,162.08L167.76,162.35L168.75,162.48L169.89,162.12L171.04,161.30L171.95,160.29L172.10,160.12L172.93,158.70L173.46,157.20L173.62,155.77L173.40,154.58L173.15,154.11L172.81,153.75L172.42,153.58L172.63,153.82L172.88,154.28L173.11,155.47L172.95,156.90L172.42,158.40L171.58,159.83L170.53,161.01L169.37,161.83L168.24,162.19L167.43,162.08L167.01,161.74L166.61,160.72L166.57,159.39L166.92,157.90L167.61,156.42L168.57,155.10L169.69,154.09L170.85,153.49L171.93,153.37L172.42,153.58"/><path d="M167.38,154.39L168.93,153.83L170.08,153.25L171.07,152.59L172.05,151.70"/></g><g style="stroke:#000000;stroke-width:0.529"><path d="M159.58,156.26L152.67,152.27"/><path d="M163.38,149.67L156.19,145.53L155.52,145.24L154.70,145.33L153.82,145.78L152.96,146.56L152.23,147.56L151.90,148.26"/><path d="M159.58,156.26L159.34,157.26L159.39,159.36L160.04,160.98L161.22,161.95L162.30,162.57L163.87,162.78L165.06,162.40L167.38,163.74L168.93,163.17L170.08,162.60L171.07,161.93L172.05,161.04L172.97,159.57L173.58,158.24L174.04,156.82L174.39,155.02L174.05,154.30L173.58,153.57L172.97,152.76L172.05,151.70L171.44,151.34"/><path d="M163.38,149.67L164.28,148.85L166.13,147.91L167.84,147.72L169.23,148.32L170.31,148.94L171.23,150.25L171.44,151.34"/></g></g><g id="Actor_3.0"><g style="stroke:#000000;stroke-width:0.176"><path d="M80.62,115.98L79.71,115.28L79.49,114.92L79.07,114.21L78.73,112.82L78.73,111.19L79.06,109.43L79.71,107.61L80.62,105.85L81.77,104.24L83.07,102.88L84.46,101.84L84.58,101.93L84.74,102.11L84.86,102.35L83.53,103.35L82.28,104.66L81.36,105.95L81.19,106.19L80.31,107.88L79.69,109.62L79.38,111.31L79.38,112.86L79.71,114.23L80.13,114.93L80.71,115.52L80.31,115.22L80.13,114.93"/><path d="M79.71,114.23L79.66,114.03"/><path d="M84.74,115.61L84.81,115.56L84.86,115.49L83.53,116.03L82.28,116.17L81.19,115.89L81.03,115.77L82.44,116.12L84.24,115.70L86.11,114.53L87.86,112.74L89.29,110.51L90.25,108.10L90.63,105.76L90.40,103.75L89.58,102.28L88.48,101.65L89.32,102.13"/><path d="M80.71,115.52L81.03,115.77"/><path d="M94.54,69.17L96.18,66.87L100.12,62.38L104.31,58.51L108.56,55.45L108.10,56.62L107.59,57.40L103.87,60.19L99.78,64.11L95.98,68.64L95.69,69.06L96.21,69.04L96.98,68.73L97.76,68.14L98.34,67.49L101.16,64.04L104.14,60.85L107.22,57.97L109.69,59.39L109.99,59.62L110.20,59.87L111.07,58.85L111.70,57.56L112.09,56.25L112.05,55.26L111.91,55.28L111.64,55.26L111.40,55.17L108.90,53.73L109.10,52.51L106.28,54.01L101.93,57.14L97.74,61.01L93.80,65.50L90.24,70.49L87.10,75.96L84.60,81.43L82.68,87.09L81.43,92.65L80.89,97.98L81.01,101.17L81.96,100.39L84.46,101.84L84.83,101.57L85.20,101.24L86.04,100.35L86.75,99.30L87.25,98.25L84.79,96.82L84.06,98.25L83.28,99.24L83.81,94.02L85.06,88.46L86.98,82.81L88.15,80.23"/><path d="M81.01,101.17L80.47,101.60"/><path d="M82.25,108.02L82.75,107.05L83.74,105.81L83.82,106.12L84.36,108.77L84.73,108.19L85.26,106.87L84.81,105.30L84.78,104.96L85.91,104.45L86.92,104.44L87.28,104.65L87.71,104.90L88.20,105.77L88.34,106.98L88.11,108.37L87.54,109.81L86.68,111.14L85.64,112.21L84.52,112.91L83.45,113.16L82.54,112.94L81.89,112.26L81.61,111.32"/><path d="M81.96,100.39L83.08,99.49L83.28,99.24"/><path d="M83.18,110.24L83.88,109.52L84.36,108.77"/><path d="M83.74,105.81L84.78,104.96"/><path d="M84.86,115.49L85.75,114.93L86.68,114.85L87.48,115.10L88.07,115.69L87.98,115.77L87.80,115.86L87.61,115.91L87.41,115.90L87.26,115.85L86.14,115.21L86.33,115.19"/><path d="M84.53,97.33L84.63,95.49L85.63,90.07L87.32,84.52L88.66,81.34"/><path d="M84.79,96.82L85.75,92.71L87.02,88.53L88.60,84.36L88.87,83.53L88.99,82.57L88.87,81.75L88.60,81.23L96.67,85.89L96.25,85.17L95.93,83.88L95.95,82.36L96.30,80.70L96.42,80.37L96.95,79.01L97.88,77.40L99.01,75.99L100.28,74.86L101.59,74.08L102.86,73.72L103.70,73.72L104.09,73.99L104.52,74.35L105.19,73.94L106.11,73.53L106.19,73.33L106.44,72.61L106.48,72.32L106.46,72.23L106.41,72.15L105.77,72.86L105.05,73.39L104.23,73.71L103.70,73.72L95.63,69.06L94.05,69.22L92.35,70.09L90.71,71.59L89.32,73.53L88.33,75.71L87.86,77.87L87.95,79.79L88.60,81.23"/><path d="M89.58,102.28L89.66,102.33L90.49,103.80L90.72,105.81L90.33,108.15L89.37,110.56L87.94,112.79L86.20,114.58L85.73,114.94L85.68,115.09L85.59,115.21L85.11,115.42"/><path d="M85.47,115.27L86.14,115.21"/><path d="M85.26,106.87L85.31,106.75L85.54,105.36L85.45,104.65"/><path d="M85.20,101.24L85.47,101.46L85.59,101.60L85.68,101.75L85.74,101.89L86.65,101.58L88.34,101.56L88.48,101.65L88.34,101.56"/><path d="M88.08,98.45L88.18,97.95L88.07,97.73L87.93,98.44L88.08,98.45L87.48,99.71L86.68,100.90L85.74,101.89L85.69,101.92L85.78,101.88"/><path d="M84.86,102.35L85.69,101.92"/><path d="M88.60,122.49L96.67,127.15L95.22,125.03L94.05,122.66L93.27,120.53L87.66,117.29L87.26,115.85L86.75,115.38L86.90,115.43"/><path d="M86.75,115.38L86.19,115.20"/><path d="M87.09,104.54L86.92,104.44"/><path d="M87.66,117.29L88.18,116.06L88.07,115.69"/><path d="M88.07,116.33L87.93,115.79L87.48,115.10"/><path d="M88.18,116.06L88.44,115.45L88.90,114.77L90.63,112.29L91.97,109.57L92.81,106.79L93.10,104.16L92.81,101.86L92.12,100.38L93.63,101.25L93.32,100.86L93.19,100.28L93.27,99.57L93.60,99.70L93.79,99.74L93.95,99.74L94.10,99.73L94.87,96.74L96.03,93.06L97.43,89.38L98.70,86.49L98.29,86.44L97.96,86.38L97.62,86.29L97.61,87.08L97.71,88.07L97.16,88.75L96.95,88.94L96.84,89.00L96.75,89.03L96.67,89.02L96.93,88.26L97.06,87.23L96.96,86.47L96.67,85.89L97.11,86.10L97.62,86.29"/><path d="M87.65,104.86L87.45,104.75L87.63,104.85"/><path d="M88.60,84.36L96.67,89.02L95.22,92.81L94.05,96.54L93.27,99.57L87.66,96.35L87.25,98.25L87.60,98.39L87.93,98.44L87.36,99.65"/><path d="M88.18,97.95L88.44,98.26L92.12,100.38"/><path d="M87.66,96.35L87.79,96.99L88.07,97.73"/><path d="M106.05,132.74L105.99,132.73L106.05,132.74L106.04,132.71L105.99,132.66L105.78,132.48L105.22,132.09L105.05,132.45L104.18,133.91L103.13,135.19L101.96,136.20L100.76,136.87L99.60,137.17L98.57,137.07L97.72,136.58L97.11,135.73L96.79,134.58L96.78,133.20L97.07,131.69L97.65,130.14L98.48,128.66L98.70,128.33L97.85,127.81L96.67,127.15L96.96,127.72L97.06,128.49L96.93,129.52L96.67,130.28L88.60,125.62"/><path d="M88.90,114.77L94.08,117.76L95.39,115.98L96.49,114.04L97.36,112.01L97.68,112.15L97.86,112.21L98.16,112.26L97.25,114.40L96.08,116.44L94.71,118.32L94.37,118.83L94.14,119.39L94.04,119.93L94.10,120.39L94.87,122.50L96.03,124.83L97.43,126.89L98.70,128.33L97.62,129.62L97.14,130.09L96.88,130.27L96.77,130.30L96.67,130.28L96.25,131.49L95.93,133.14L95.95,134.65L96.30,135.91L96.96,136.83L97.88,137.37"/><path d="M94.71,118.32L94.51,118.09L94.37,117.97L94.08,117.76L93.62,118.44L93.32,119.18L93.20,119.91L93.27,120.53L93.42,120.58L93.60,120.60L93.79,120.56L93.95,120.50L94.10,120.39"/><path d="M93.63,101.25L94.22,101.45L94.37,101.44L94.51,101.37L94.62,101.26L94.71,101.10L94.37,100.98L94.14,100.69L94.04,100.26L94.10,99.73"/><path d="M116.84,64.81L116.78,64.74L117.85,65.34L119.18,65.58L120.04,65.63L120.74,65.69L121.05,65.73L121.44,65.82L121.58,65.89L123.22,66.83L122.91,66.82L122.65,67.00L119.84,69.15L117.11,71.62L114.47,74.38L111.98,77.40L109.66,80.64L107.53,84.05L105.64,87.59L104.00,91.22L102.63,94.89L101.56,98.55L100.78,102.16L100.33,105.66L100.31,105.99L98.82,105.13L98.76,105.07L98.68,104.95L98.57,104.68L98.42,104.21L98.16,103.17L98.37,101.69L99.14,97.93L100.23,94.11L101.64,90.27L103.35,86.48L105.32,82.77L107.54,79.21L109.98,75.83L112.60,72.70L115.36,69.84L118.23,67.30L119.41,66.37L120.21,66.13L120.81,65.99L121.29,65.93L121.43,65.96L118.74,67.97L115.92,70.47L113.20,73.28L110.57,76.45L108.23,79.69L106.05,83.19L104.10,86.83L102.72,89.91L102.43,90.57L101.04,94.34L99.97,98.10L99.22,101.79L98.82,105.13L98.83,105.30L98.56,105.06L98.32,104.78L97.87,104.14L97.36,103.36L97.51,103.42L97.68,103.42L97.86,103.38L98.03,103.29L98.16,103.17L97.25,102.08L96.08,101.39L94.71,101.10"/><path d="M97.36,103.36L96.49,102.34L95.44,101.71L94.22,101.45"/><path d="M95.44,101.71L95.53,101.72"/><path d="M95.69,69.06L95.63,69.06"/><path d="M97.71,88.07L98.05,87.57L98.70,86.49L98.48,86.41L97.65,85.88L97.07,85.00L96.78,83.83L96.79,82.43L97.11,80.91L97.72,79.36L98.57,77.89L99.60,76.59L100.76,75.55L101.97,74.84L103.13,74.51L104.18,74.57L105.05,75.03L105.22,75.19L107.10,72.63L109.59,69.58L112.19,66.73L114.40,64.57L114.83,64.26L115.25,64.12L115.62,64.18L115.89,64.41L115.98,64.26L116.02,64.10L116.01,63.95L115.95,63.82L116.78,64.74"/><path d="M97.62,129.62L97.61,128.58L97.71,127.74"/><path d="M97.36,112.01L97.66,111.34L97.83,111.05L98.24,110.53L98.43,110.38L98.64,110.30L98.76,110.31L98.83,110.34L98.82,110.53L100.30,111.39L100.33,111.68L100.78,114.66L101.56,117.37L102.63,119.79L104.00,121.88L105.64,123.62L107.53,124.97L106.05,124.12L104.10,122.71L102.43,120.92L101.04,118.74L99.97,116.23L99.22,113.40L98.82,110.53L98.78,110.52L98.72,110.54L98.62,110.66L98.54,110.84L98.36,111.37L98.16,112.26L98.38,113.49L99.14,116.37L100.23,118.93L101.64,121.14L103.35,122.97L105.32,124.39L107.54,125.39L109.39,125.81L109.80,125.98L112.12,126.54L114.61,126.68L117.38,126.39L118.15,126.20L118.01,126.38L116.82,128.42L115.89,130.55L115.62,131.10L115.25,131.57L114.83,131.93L114.40,132.11L111.95,132.53L109.59,132.66L107.32,132.51L105.22,132.09L105.03,132.63L104.88,132.98L104.55,133.54"/><path d="M98.83,110.34L100.47,111.29L100.30,111.39"/><path d="M98.83,105.30L100.47,106.24L100.31,105.99"/><path d="M98.34,67.49L106.41,72.15L108.97,69.00L111.61,66.12L113.85,63.93L108.24,60.69L109.69,59.39L110.35,58.42L110.91,57.28L111.25,56.11L111.40,56.18L111.77,56.27L111.94,56.27L112.09,56.25L112.62,58.01L113.71,59.14L115.24,59.52L117.03,59.10L118.91,57.93L120.65,56.14L122.08,53.91L123.04,51.50L123.38,49.73L123.78,50.59L124.40,51.15L125.20,51.38L125.58,51.28L125.18,51.82L124.82,52.55L130.00,55.54L129.11,57.56L127.98,59.50L126.41,61.59L126.04,62.20L125.95,62.38L125.80,62.86L125.80,63.14L125.86,63.28L125.95,63.36L126.11,63.26L126.07,63.21L126.08,63.12L126.18,62.93L126.46,62.60L127.02,62.05L127.28,61.83L127.09,61.59L126.80,61.35L126.66,61.26"/><path d="M100.47,111.29L100.52,111.25L100.70,110.99L100.96,110.05L101.04,108.75L101.18,111.63L101.62,114.56L102.38,117.23L103.44,119.61L104.78,121.66L106.40,123.36L108.26,124.70L110.35,125.64L112.63,126.19L115.08,126.33L117.67,126.05L120.36,125.37L123.12,124.30L125.68,122.97L128.24,121.34L131.00,119.23L133.69,116.80L135.36,115.05L136.28,114.09L138.73,111.12L141.01,107.94L143.10,104.58L144.96,101.10L146.58,97.53L147.92,93.92L148.98,90.32L149.74,86.78L150.18,83.33L150.32,80.30L150.18,77.42L149.73,74.49L148.98,71.82L147.92,69.45L146.58,67.39L144.96,65.69L143.10,64.35L141.01,63.41L138.73,62.86L136.28,62.73L135.21,62.84"/><path d="M100.47,106.24L100.70,106.62L100.81,106.93L100.96,107.52L101.04,108.75L101.18,105.71L101.62,102.27L102.38,98.72L103.44,95.13L104.78,91.52L106.40,87.95L108.26,84.47L110.34,81.11L112.63,77.93L115.08,74.96L117.67,72.25L120.36,69.82L123.12,67.71L125.68,66.08L124.58,66.62L123.67,66.84L123.22,66.83"/><path d="M104.85,133.13L104.81,133.19"/><path d="M104.52,74.35L104.76,74.59L104.99,74.85L105.22,75.19L105.84,74.07L106.11,73.53"/><path d="M105.09,132.94L105.11,132.93"/><path d="M105.53,132.76L105.54,132.76"/><path d="M105.57,132.76L106.04,132.71L105.79,132.73"/><path d="M105.90,132.74L105.99,132.73L105.83,132.74"/><path d="M107.53,124.97L109.39,125.81"/><path d="M108.24,60.69L108.87,60.48L109.54,60.36L109.89,60.34L110.27,60.00L111.07,58.85"/><path d="M107.59,57.40L107.22,57.97"/><path d="M108.56,55.45L108.68,55.15L108.90,53.73"/><path d="M109.10,52.51L109.21,51.84"/><path d="M110.22,132.95L111.72,132.86L112.14,133.80L112.96,134.65"/><path d="M109.89,60.34L110.29,60.41L113.97,62.53L115.60,62.39L117.74,61.49L119.87,59.93L121.85,57.81L123.54,55.29L124.82,52.55"/><path d="M109.65,60.35L110.20,59.87L110.27,60.00"/><path d="M111.25,56.11L111.35,55.63L111.61,53.45L112.14,51.64L112.96,49.84L114.03,48.17L115.28,46.70L116.64,45.53L118.05,44.72L119.41,44.32L120.67,44.33L121.73,44.78"/><path d="M113.59,134.59L112.72,133.69L112.75,133.76L113.54,134.57L114.56,134.99L115.14,135.00L113.76,134.66"/><path d="M112.72,133.69L112.31,132.76L111.72,132.86"/><path d="M112.31,132.76L114.12,132.45L114.25,132.39L114.34,132.27L114.40,132.11"/><path d="M123.94,79.82L125.28,78.82L128.47,77.30L131.51,76.71L134.24,77.08L136.22,78.22L136.51,78.39L138.19,80.56L139.20,83.50L139.48,87.02L139.47,87.13L139.01,90.95L137.83,95.08L135.99,99.17L133.60,103.01L130.78,106.40L127.68,109.14L124.48,111.10L121.34,112.16L118.43,112.28L115.92,111.43L113.93,109.68L112.58,107.10L111.93,103.85L112.01,100.43"/><path d="M112.05,55.26L112.25,53.62L112.75,51.87L113.54,50.16L114.56,48.56L115.75,47.15L117.06,46.03L118.44,45.25L118.38,45.27"/><path d="M113.13,108.16L114.33,108.12L117.47,107.05L120.67,105.10L123.77,102.35L126.59,98.96L128.98,95.12L130.82,91.03L132.01,86.91L132.47,82.98L132.19,79.45L131.27,76.76"/><path d="M113.97,62.53L115.48,63.40L114.98,63.33L114.42,63.52L113.85,63.93L114.12,64.15L114.34,64.44L114.40,64.57"/><path d="M113.68,59.11L115.15,59.47L116.95,59.05L118.82,57.88L120.57,56.09L121.99,53.86L122.95,51.45L123.34,49.11L123.11,47.10L122.34,45.73L122.19,45.58L121.20,45.00L121.93,45.31L122.19,45.58"/><path d="M114.04,135.10L114.03,135.09"/><path d="M123.21,124.46L123.01,124.55L123.27,124.44L122.91,124.61L120.99,125.36L121.05,125.86L120.82,127.26L120.24,128.70L119.39,130.02L118.35,131.10L117.23,131.79L116.16,132.04L115.25,131.82L115.20,131.79L114.76,132.16L114.25,132.39"/><path d="M120.42,48.25L120.05,48.03L120.42,48.25L120.91,49.12L121.05,50.32L120.82,51.72L120.25,53.16L119.39,54.49L118.35,55.56L117.23,56.26L116.16,56.51L115.25,56.28L114.60,55.61L114.31,54.67L114.43,54.64L115.55,53.94L116.19,53.28L114.30,53.95L114.28,54.56L114.31,54.67"/><path d="M114.30,53.95L114.33,53.24L114.52,52.57L117.31,51.63L117.39,51.62L117.44,51.54L118.01,50.10L118.05,49.86"/><path d="M114.52,52.57L114.73,51.80L115.46,50.40L115.64,50.17"/><path d="M123.46,124.55L123.43,124.62L123.23,126.27L122.72,128.00L121.94,129.72L120.92,131.32L119.72,132.73L118.41,133.84L117.06,134.62L115.76,135.01L115.14,135.00"/><path d="M115.16,135.00L116.95,134.58L118.82,133.41L120.57,131.62L122.00,129.40L122.95,126.99L123.34,124.65L123.31,124.42L123.27,124.44"/><path d="M115.20,131.79L115.26,131.74L115.70,131.17L116.02,130.51L115.98,130.54L115.89,130.55"/><path d="M116.02,130.51L116.93,128.46L118.09,126.47L118.33,126.15L118.15,126.20"/><path d="M115.89,64.41L116.82,65.46L118.01,66.12L119.41,66.37L119.45,66.19L119.44,66.01L119.39,65.83L119.30,65.68L119.18,65.58"/><path d="M115.95,63.82L115.48,63.40"/><path d="M116.19,53.28L116.59,52.87L117.39,51.62"/><path d="M118.33,126.15L120.11,125.70L120.99,125.36"/><path d="M118.16,48.00L118.62,47.80L119.63,47.79L120.05,48.03L119.63,47.79"/><path d="M118.44,45.25L119.67,44.88L120.92,44.88L121.20,45.00"/><path d="M118.41,45.26L118.35,45.29"/><path d="M119.67,44.88L119.72,44.87L120.20,44.87"/><path d="M121.58,65.89L121.43,65.96L122.91,66.82"/><path d="M123.47,48.53L123.46,48.61L123.43,48.69L123.23,47.27L122.72,46.12L122.34,45.73"/><path d="M123.43,124.62L123.42,124.37L123.31,124.42"/><path d="M123.42,124.37L123.47,124.35"/><path d="M123.46,124.53L123.42,124.68L123.45,124.56"/><path d="M123.42,124.70L123.42,124.68"/><path d="M123.43,48.69L123.42,49.16L123.38,49.73L123.49,49.60L123.54,49.47L123.54,49.33L123.82,49.94L124.93,50.59L124.28,50.39L124.39,50.48"/><path d="M123.82,49.94L123.90,50.11"/><path d="M123.84,49.99L124.28,50.39"/><path d="M123.54,49.33L123.49,48.94"/><path d="M140.04,53.97L139.59,53.88L137.10,53.69L134.50,53.85L132.29,54.24L131.86,54.43L131.44,54.78L131.07,55.26L130.80,55.80L130.66,55.79L130.32,55.69L130.00,55.54L130.36,54.81L130.85,54.17L131.42,53.70L131.99,53.45L126.38,50.22L124.93,50.59L125.06,50.70L125.16,50.86L125.22,51.05L125.22,51.25L125.20,51.38"/><path d="M125.58,51.28L125.76,51.05L125.22,51.20L124.47,50.98"/><path d="M125.95,63.36L127.59,64.31L127.58,64.38L127.45,64.65L127.25,64.91L126.76,65.35L125.68,66.08L128.24,64.75L131.00,63.68L133.61,63.02"/><path d="M134.25,62.12L133.40,62.21L130.67,62.90L127.86,63.99L127.59,64.12L126.11,63.26L128.79,62.17L131.62,61.41L134.34,61.08L134.97,61.11"/><path d="M125.76,51.05L126.38,50.22"/><path d="M135.50,60.35L134.09,60.29L131.33,60.62L128.45,61.40L127.28,61.83L128.68,59.97L129.86,57.93L130.80,55.80"/><path d="M127.59,64.12L127.59,64.31"/><path d="M128.89,121.02L128.54,121.30L130.00,122.14L130.15,122.20L130.32,122.20L130.50,122.16L130.67,122.07L130.80,121.94L129.86,120.89L129.40,120.64L128.89,121.02L129.11,121.15L130.00,122.14L130.36,122.46"/><path d="M128.54,121.30L128.46,121.36"/><path d="M129.41,120.64L130.97,119.43L133.69,116.98L136.31,114.24L138.78,111.24L141.09,108.03L143.20,104.64L145.15,100.96L146.71,97.51L148.06,93.88L149.13,90.24L149.90,86.66L150.15,84.69L150.60,84.96L151.98,85.25L152.02,85.07L152.02,84.89L151.97,84.71L151.88,84.56L151.76,84.46L150.29,83.61L150.15,84.69"/><path d="M130.80,121.94L131.07,122.17L131.44,122.23L131.86,122.09L132.29,121.78L134.50,119.62L137.10,116.77L139.58,113.72L141.46,111.17L141.64,111.33L142.51,111.78L143.56,111.84L144.72,111.51L145.50,111.05"/><path d="M131.36,48.43L140.30,53.60"/><path d="M132.29,121.78L132.31,121.89L132.28,121.97"/><path d="M132.29,54.24L132.31,54.06L132.28,53.89L132.22,53.70L132.12,53.56L131.99,53.45L134.23,53.06L136.87,52.90L139.43,53.09L139.96,53.08L140.78,52.76L141.02,52.59"/><path d="M134.07,46.87L141.88,51.38"/><path d="M136.40,61.17L136.91,61.19L139.31,61.74L141.49,62.73L142.92,63.56L140.86,62.63L138.53,62.07L136.04,61.93L135.84,61.95"/><path d="M136.91,60.45L139.14,60.96L141.37,61.96L143.34,63.39L144.63,64.77L142.92,63.56"/><path d="M142.22,112.18L142.23,112.18L142.22,112.14L142.05,111.94L141.14,112.21L140.46,112.75L140.35,112.90"/><path d="M140.33,112.93L140.28,112.98"/><path d="M140.46,112.75L140.80,112.25L141.46,111.17L141.69,111.50L142.05,111.94"/><path d="M140.57,112.68L140.47,112.77"/><path d="M141.19,112.32L140.98,112.40L140.76,112.55"/><path d="M140.91,112.45L140.93,112.44L140.89,112.46"/><path d="M141.60,112.17L141.30,112.28"/><path d="M141.51,62.74L141.49,62.73"/><path d="M141.35,54.20L141.46,54.27L141.32,54.24"/><path d="M141.64,53.80L141.46,54.27L141.64,53.90L142.03,53.25"/><path d="M141.97,112.16L142.41,112.18"/><path d="M141.90,112.16L142.08,112.16"/><path d="M142.11,112.17L142.19,112.17"/><path d="M142.71,112.18L142.65,112.18"/><path d="M142.78,112.18L142.92,112.18L142.57,112.18"/><path d="M142.92,112.18L143.08,112.19L142.92,112.18"/><path d="M143.25,112.19L143.08,112.19L143.11,112.19"/><path d="M143.18,51.63L143.56,51.17L144.72,50.15L145.92,49.48L147.08,49.18L148.12,49.28L148.50,49.50L148.97,49.77L149.58,50.62L149.90,51.77L149.91,53.15L149.62,54.67L149.04,56.21L148.21,57.70L147.99,58.03L149.26,59.46L150.66,61.52L151.82,63.86L152.59,65.96L152.64,66.42L152.55,66.97L152.32,67.52L151.98,68.03L152.02,68.12L152.02,68.17L152.43,67.56L152.70,66.90L152.81,66.25L152.74,65.55L152.75,65.69L152.69,65.83L152.59,65.96"/><path d="M151.98,68.03L150.60,69.91L149.44,71.96L149.34,72.17L149.13,71.41L147.99,68.86L146.62,66.78L144.98,65.04L144.87,64.95L144.92,64.99"/><path d="M144.87,64.95L144.63,64.77"/><path d="M148.88,49.03L147.96,48.49L146.82,48.39L145.56,48.71L145.04,49.01"/><path d="M151.98,85.25L152.32,85.37L152.55,85.66L152.64,86.10L152.59,86.62L151.82,89.61L150.66,93.29L149.26,96.97L147.99,99.88L148.21,99.94L149.04,100.47L149.62,101.35L149.91,102.53L149.90,103.42"/><path d="M148.85,98.21L148.59,98.75L147.99,99.88L148.38,99.90L148.94,99.99L148.73,99.07L148.85,98.21L149.00,97.87"/><path d="M149.03,56.46L148.92,56.75L148.94,56.66L148.68,57.09L148.38,57.52L147.99,58.03L149.23,58.75L149.25,58.78L149.20,58.72"/><path d="M149.56,100.57L149.62,100.67L149.54,100.53L149.56,100.57"/><path d="M149.62,100.67L149.76,100.91"/><path d="M148.94,99.99L149.18,100.04L149.25,100.04L149.06,99.76"/><path d="M149.09,99.81L149.22,100.01"/><path d="M149.54,100.53L149.37,100.24"/><path d="M148.84,98.45L148.79,98.91L148.82,98.64"/><path d="M148.87,98.23L148.85,98.36"/><path d="M152.70,66.90L153.12,67.13L153.62,68.01L153.75,69.21L153.52,70.60L152.95,72.04L152.10,73.37L151.06,74.44L150.04,75.08L149.90,74.12L149.34,72.17"/><path d="M149.39,72.34L149.55,71.98L150.68,69.99L152.02,68.17"/><path d="M148.85,58.54L148.73,57.56L148.84,57.11L148.79,57.47"/><path d="M149.37,58.97L149.25,58.78"/><path d="M149.06,58.49L149.15,58.64L149.07,58.50"/><path d="M148.84,57.11L148.92,56.75"/><path d="M148.81,57.45L148.83,57.32"/><path d="M148.83,57.56L148.82,57.52L148.84,57.79L148.84,57.73"/><path d="M148.82,57.52L148.82,57.43"/><path d="M148.84,57.80L148.84,57.79"/><path d="M148.94,56.66L149.01,56.51L148.92,56.77"/><path d="M152.21,84.61L151.76,84.46L150.45,84.19L150.23,84.07"/><path d="M150.29,83.61L150.31,83.51"/><path d="M150.42,82.29L150.41,82.33"/><path d="M150.50,77.64L150.55,77.60"/><path d="M150.57,77.59L150.62,77.53L150.39,77.64L150.35,77.20L150.35,77.25"/><path d="M150.62,77.53L151.95,76.53L153.19,75.22L154.29,73.70L155.17,72.00L155.78,70.26L156.10,68.57L156.10,67.02L155.78,65.69L155.17,64.66L155.01,64.54L155.81,65.98L156.05,67.99L155.66,70.33L154.70,72.75L153.27,74.97L151.53,76.76L150.38,77.48L150.35,77.08L150.04,75.08"/><path d="M150.39,77.64L150.40,77.70"/><path d="M154.07,63.45L152.93,63.16L151.89,63.27L151.22,61.92"/><path d="M152.59,86.62L152.69,86.58L152.74,86.53"/><path d="M152.74,65.55L151.96,63.42L151.89,63.27"/><path d="M152.97,63.76L152.78,63.76L153.19,63.71L153.35,63.75L152.97,63.76"/><path d="M152.78,63.76L152.11,63.83"/><path d="M153.35,63.75L154.29,63.99L154.92,64.47L153.93,63.90"/><path d="M154.99,64.15L155.00,64.16"/><path d="M154.92,64.47L155.01,64.54"/></g><g style="stroke:#000000;stroke-width:0.529"><path d="M145.38,111.31L144.50,111.83L143.25,112.19L142.23,112.18L141.91,112.16L141.58,112.20L141.20,112.32L140.91,112.45L140.57,112.68L140.35,112.90L139.64,113.84L137.13,116.92L134.51,119.79L132.28,121.97L131.77,122.34L131.67,122.39L131.13,122.57L130.99,122.58L130.51,122.51L130.36,122.46L128.46,121.36L128.19,121.57L127.45,122.07L125.68,122.97L123.99,124.07L123.66,124.26L123.47,124.34L123.26,126.21L122.75,127.97L121.95,129.72L120.91,131.35L119.69,132.78L118.35,133.92L116.99,134.71L116.88,134.76L115.53,135.16L114.16,135.14L112.96,134.65L110.36,133.13L110.22,132.95L109.11,133.01L106.82,132.86L106.05,132.74L105.53,132.76L105.09,132.94L104.81,133.19L104.62,133.44L104.25,134.01L103.14,135.35L101.91,136.42L100.53,137.19L99.29,137.52L99.13,137.52L98.00,137.41L97.88,137.37L89.46,132.57L88.40,131.57L87.87,129.94L87.94,127.88L88.60,125.62L88.87,124.79L88.99,123.83L88.87,123.00L88.60,122.49L87.02,120.14L85.75,117.44L85.11,115.42L84.74,115.61L83.33,116.17L81.90,116.32L80.76,116.03L80.62,115.98L78.24,114.59L76.96,113.52L76.28,111.71L76.28,109.37L76.96,106.77L78.24,104.22L79.98,102.01L80.47,101.60L80.45,101.50L80.28,96.71L80.80,91.54L82.01,86.15L83.87,80.68L86.34,75.27L89.34,70.08L90.72,68.14L92.79,65.24L96.60,60.89L100.66,57.15L104.87,54.12L109.10,51.87L109.21,51.84L109.31,51.20L110.36,48.60L111.93,46.21L113.84,44.32L115.86,43.15L117.77,42.84L119.34,43.41L121.73,44.78L121.84,44.87L122.66,45.71L123.25,47.02L123.47,48.53L123.49,48.94L125.56,48.48L128.53,48.24L131.36,48.43L131.94,48.41L132.71,48.10L133.49,47.52L134.07,46.87L135.64,45.21L137.35,44.11L138.99,43.71L140.38,44.05L145.11,46.82"/><path d="M82.62,110.73L81.72,111.29L81.61,111.32L81.57,111.21L81.62,109.89L82.02,108.45L82.25,108.02L83.18,110.24L82.84,110.59L82.62,110.73"/><path d="M123.94,79.82L122.11,81.19L119.13,84.28L116.50,87.92L114.37,91.91L112.85,96.05L112.02,100.10L112.01,100.43"/><path d="M112.01,100.43L113.24,99.29L116.55,95.34L119.44,90.92L121.82,86.21L123.59,81.37L123.94,79.82"/><path d="M115.64,50.17L116.42,49.18L117.51,48.28L118.16,48.00L118.24,48.71L118.05,49.86L115.64,50.17"/><path d="M142.08,112.16L142.11,112.17"/><path d="M141.91,112.16L141.97,112.16"/><path d="M142.41,112.18L142.57,112.18"/><path d="M142.71,112.18L142.78,112.18"/><path d="M148.84,57.73L148.82,57.43L148.91,56.78L149.03,56.46L149.16,56.22L149.77,54.59L150.08,53.00L150.06,51.41L149.72,50.17L149.64,50.04L148.98,49.11L148.88,49.03L146.16,47.43"/><path d="M150.07,103.23L150.08,102.18L149.76,100.91L149.34,100.20"/><path d="M149.09,99.80L148.93,99.46L148.85,99.11L148.82,98.76L148.84,98.45L148.87,98.23L149.00,97.87L149.39,96.95L150.80,93.25L151.97,89.54L152.74,86.53L152.81,85.89L152.81,85.78L152.69,85.23L152.63,85.10L152.33,84.71L152.21,84.61L150.31,83.51L150.35,83.17L150.42,82.29L150.42,82.05L150.32,80.30L150.42,77.92L150.40,77.70L150.57,77.59L151.91,76.59L153.18,75.26L154.29,73.70L155.19,71.98L155.81,70.21L156.13,68.49L156.14,66.90L156.12,66.79L155.80,65.42L155.09,64.24L154.07,63.45L151.45,61.95L151.22,61.92L150.71,60.92L149.06,58.49L149.07,58.50"/><path d="M149.07,99.77L149.37,100.24"/><path d="M149.15,58.64L149.20,58.72"/><path d="M148.83,57.56L148.85,57.80L148.93,58.17L149.06,58.49"/><path d="M148.91,56.78L148.93,56.74"/></g></g><g id="Actor_2.3"><g style="stroke:#000000;stroke-width:0.176"><path d="M224.95,118.45L224.96,118.33L225.80,115.94L227.12,113.69L228.74,111.87"/><path d="M235.08,110.78L233.51,110.57L231.70,111.15L229.87,112.44L228.20,114.31L226.87,116.57L226.04,118.95L225.79,121.21L226.14,123.10L227.06,124.41"/><path d="M230.51,124.65L229.06,123.81L226.72,120.49L230.46,122.65L231.38,121.17L231.99,119.85L232.62,118.52L233.47,117.28L234.46,116.24L235.49,115.49L234.34,116.06L232.80,116.63L232.45,118.42L231.99,119.85L231.59,121.18L231.45,122.48L231.59,123.62L231.99,124.52L232.45,125.23L232.80,125.97"/><path d="M226.72,120.49L229.06,114.47L232.80,116.63"/><path d="M229.06,114.47L233.73,111.77L236.91,113.61"/><path d="M230.46,122.65L231.36,123.69L231.99,124.52L232.62,125.11L233.47,125.37L234.46,125.27L235.49,124.83L236.53,124.08L237.52,123.04L238.36,121.80L239.00,120.47L239.40,119.13L239.54,117.82L239.40,116.68L239.00,115.80L238.36,115.21L237.52,114.95L236.53,115.05L235.49,115.49L236.49,114.82L237.47,113.93"/><path d="M232.65,124.21L232.43,123.97L232.18,123.51L231.96,122.32L232.12,120.89L232.64,119.39L233.48,117.96L234.53,116.78L235.69,115.97L236.83,115.60L237.82,115.73L238.35,116.17L238.56,116.35L238.97,117.37L239.00,118.70L238.65,120.18L237.96,121.66L237.01,122.98L235.88,124.00L234.72,124.60L233.64,124.71L232.76,124.34L232.65,124.21L233.13,124.42L234.21,124.30L235.37,123.70L236.49,122.69L237.45,121.37L238.14,119.89L238.49,118.40L238.46,117.07L238.05,116.05L237.64,115.71"/></g><g style="stroke:#000000;stroke-width:0.529"><path d="M224.95,118.45L217.44,114.12L217.00,113.49L216.83,112.58L216.95,111.50L217.35,110.35L217.99,109.27L218.79,108.37L219.68,107.74L220.54,107.47L221.30,107.57L228.74,111.87"/><path d="M224.95,118.45L224.71,120.59L225.06,122.47L225.99,123.79L227.06,124.41L228.46,125.01L230.17,124.82L230.51,124.65L232.80,125.97L234.34,125.40L235.49,124.83L236.49,124.17L237.47,123.27L238.38,121.81L239.00,120.47L239.45,119.05L239.81,117.25L239.45,116.52L239.00,115.80L238.38,114.99L237.47,113.93L236.91,113.61"/><path d="M236.91,113.61L236.90,113.37L236.25,111.75L235.08,110.78L234.00,110.16L232.43,109.95L230.63,110.52L228.79,111.82L228.74,111.87"/></g></g><g id="PMI1.0"><g><path style="stroke:#000000;stroke-width:0.250" d="M108.48,14.85L88.78,45.00"/></g><g><path style="fill:#000000" d="M89.78,45.00L89.77,44.90L89.76,44.80L89.73,44.71L89.70,44.62L89.66,44.53L89.61,44.44L89.55,44.37L89.48,44.29L89.41,44.23L89.33,44.17L89.25,44.12L89.16,44.08L89.07,44.04L88.97,44.02L88.88,44.00L88.78,44.00L88.68,44.00L88.58,44.02L88.49,44.04L88.40,44.08L88.31,44.12L88.22,44.17L88.14,44.23L88.07,44.29L88.00,44.37L87.95,44.44L87.90,44.53L87.85,44.62L87.82,44.71L87.80,44.80L87.78,44.90L87.78,45.00L87.78,45.10L87.80,45.20L87.82,45.29L87.85,45.38L87.90,45.47L87.95,45.56L88.00,45.63L88.07,45.71L88.14,45.77L88.22,45.83L88.31,45.88L88.40,45.92L88.49,45.96L88.58,45.98L88.68,46.00L88.78,46.00L88.88,46.00L88.97,45.98L89.07,45.96L89.16,45.92L89.25,45.88L89.33,45.83L89.41,45.77L89.48,45.71L89.55,45.63L89.61,45.56L89.66,45.47L89.70,45.38L89.73,45.29L89.76,45.20L89.77,45.10z"/></g><g><path style="fill:#ffffff" d="M113.28,12.25L113.27,11.95L113.22,11.65L113.15,11.35L113.05,11.07L112.92,10.79L112.76,10.53L112.58,10.28L112.38,10.06L112.15,9.85L111.90,9.67L111.64,9.52L111.37,9.39L111.08,9.28L110.79,9.21L110.48,9.16L110.18,9.15L109.88,9.16L109.58,9.21L109.28,9.28L108.99,9.39L108.72,9.52L108.46,9.67L108.21,9.85L107.99,10.06L107.78,10.28L107.60,10.53L107.44,10.79L107.31,11.07L107.21,11.35L107.14,11.65L107.09,11.95L107.08,12.25L107.09,12.56L107.14,12.86L107.21,13.15L107.31,13.44L107.44,13.72L107.60,13.98L107.78,14.22L107.99,14.45L108.21,14.65L108.46,14.83L108.72,14.99L108.99,15.12L109.28,15.22L109.58,15.30L109.88,15.34L110.18,15.36L110.48,15.34L110.79,15.30L111.08,15.22L111.37,15.12L111.64,14.99L111.90,14.83L112.15,14.65L112.38,14.45L112.58,14.22L112.76,13.98L112.92,13.72L113.05,13.44L113.15,13.15L113.22,12.86L113.27,12.56z"/><path style="stroke:#000000;stroke-width:0.250;stroke-opacity:0.98" d="M113.28,12.25L113.27,11.95L113.22,11.65L113.15,11.35L113.05,11.07L112.92,10.79L112.76,10.53L112.58,10.28L112.38,10.06L112.15,9.85L111.90,9.67L111.64,9.52L111.37,9.39L111.08,9.28L110.79,9.21L110.48,9.16L110.18,9.15L109.88,9.16L109.58,9.21L109.28,9.28L108.99,9.39L108.72,9.52L108.46,9.67L108.21,9.85L107.99,10.06L107.78,10.28L107.60,10.53L107.44,10.79L107.31,11.07L107.21,11.35L107.14,11.65L107.09,11.95L107.08,12.25L107.09,12.56L107.14,12.86L107.21,13.15L107.31,13.44L107.44,13.72L107.60,13.98L107.78,14.22L107.99,14.45L108.21,14.65L108.46,14.83L108.72,14.99L108.99,15.12L109.28,15.22L109.58,15.30L109.88,15.34L110.18,15.36L110.48,15.34L110.79,15.30L111.08,15.22L111.37,15.12L111.64,14.99L111.90,14.83L112.15,14.65L112.38,14.45L112.58,14.22L112.76,13.98L112.92,13.72L113.05,13.44L113.15,13.15L113.22,12.86L113.27,12.56z"/><text xml:space="preserve" fill="#000000" stroke-width="0" x="109.33" y="13.61" font-size="3.41" opacity="1.00" font-family="MS Shell Dlg">1</text></g></g><g id="PMI3.0"><g><path style="stroke:#000000;stroke-width:0.250" d="M165.46,19.23L127.23,73.03"/></g><g><path style="fill:#000000" d="M128.23,73.03L128.23,72.93L128.21,72.84L128.19,72.74L128.16,72.65L128.12,72.56L128.06,72.48L128.01,72.40L127.94,72.32L127.87,72.26L127.79,72.20L127.70,72.15L127.62,72.11L127.52,72.07L127.43,72.05L127.33,72.04L127.23,72.03L127.14,72.04L127.04,72.05L126.94,72.07L126.85,72.11L126.76,72.15L126.68,72.20L126.60,72.26L126.53,72.32L126.46,72.40L126.40,72.48L126.35,72.56L126.31,72.65L126.28,72.74L126.25,72.84L126.24,72.93L126.23,73.03L126.24,73.13L126.25,73.23L126.28,73.32L126.31,73.41L126.35,73.50L126.40,73.59L126.46,73.67L126.53,73.74L126.60,73.80L126.68,73.86L126.76,73.91L126.85,73.96L126.94,73.99L127.04,74.01L127.14,74.03L127.23,74.03L127.33,74.03L127.43,74.01L127.52,73.99L127.62,73.96L127.70,73.91L127.79,73.86L127.87,73.80L127.94,73.74L128.01,73.67L128.06,73.59L128.12,73.50L128.16,73.41L128.19,73.32L128.21,73.23L128.23,73.13z"/></g><g><path style="fill:#ffffff" d="M170.36,16.70L170.34,16.39L170.30,16.09L170.22,15.80L170.12,15.51L169.99,15.23L169.83,14.97L169.65,14.73L169.45,14.50L169.22,14.30L168.98,14.12L168.72,13.96L168.44,13.83L168.15,13.73L167.86,13.65L167.56,13.61L167.25,13.59L166.95,13.61L166.65,13.65L166.35,13.73L166.07,13.83L165.79,13.96L165.53,14.12L165.28,14.30L165.06,14.50L164.85,14.73L164.67,14.97L164.52,15.23L164.39,15.51L164.28,15.80L164.21,16.09L164.16,16.39L164.15,16.70L164.16,17.00L164.21,17.30L164.28,17.60L164.39,17.89L164.52,18.16L164.67,18.42L164.85,18.67L165.06,18.89L165.28,19.10L165.53,19.28L165.79,19.43L166.07,19.57L166.35,19.67L166.65,19.74L166.95,19.79L167.25,19.80L167.56,19.79L167.86,19.74L168.15,19.67L168.44,19.57L168.72,19.43L168.98,19.28L169.22,19.10L169.45,18.89L169.65,18.67L169.83,18.42L169.99,18.16L170.12,17.89L170.22,17.60L170.30,17.30L170.34,17.00z"/><path style="stroke:#000000;stroke-width:0.250;stroke-opacity:0.98" d="M170.36,16.70L170.34,16.39L170.30,16.09L170.22,15.80L170.12,15.51L169.99,15.23L169.83,14.97L169.65,14.73L169.45,14.50L169.22,14.30L168.98,14.12L168.72,13.96L168.44,13.83L168.15,13.73L167.86,13.65L167.56,13.61L167.25,13.59L166.95,13.61L166.65,13.65L166.35,13.73L166.07,13.83L165.79,13.96L165.53,14.12L165.28,14.30L165.06,14.50L164.85,14.73L164.67,14.97L164.52,15.23L164.39,15.51L164.28,15.80L164.21,16.09L164.16,16.39L164.15,16.70L164.16,17.00L164.21,17.30L164.28,17.60L164.39,17.89L164.52,18.16L164.67,18.42L164.85,18.67L165.06,18.89L165.28,19.10L165.53,19.28L165.79,19.43L166.07,19.57L166.35,19.67L166.65,19.74L166.95,19.79L167.25,19.80L167.56,19.79L167.86,19.74L168.15,19.67L168.44,19.57L168.72,19.43L168.98,19.28L169.22,19.10L169.45,18.89L169.65,18.67L169.83,18.42L169.99,18.16L170.12,17.89L170.22,17.60L170.30,17.30L170.34,17.00z"/><text xml:space="preserve" fill="#000000" stroke-width="0" x="166.28" y="18.06" font-size="3.41" opacity="1.00" font-family="MS Shell Dlg">3</text></g></g><g id="PMI4.0"><g><path style="stroke:#000000;stroke-width:0.250" d="M158.39,185.32L146.83,125.00"/></g><g><path style="fill:#000000" d="M147.83,125.00L147.83,124.90L147.81,124.80L147.79,124.71L147.76,124.62L147.72,124.53L147.66,124.44L147.61,124.37L147.54,124.29L147.47,124.23L147.39,124.17L147.30,124.12L147.22,124.08L147.12,124.04L147.03,124.02L146.93,124.00L146.83,124.00L146.74,124.00L146.64,124.02L146.54,124.04L146.45,124.08L146.36,124.12L146.28,124.17L146.20,124.23L146.13,124.29L146.06,124.37L146.00,124.44L145.95,124.53L145.91,124.62L145.88,124.71L145.85,124.80L145.84,124.90L145.83,125.00L145.84,125.10L145.85,125.20L145.88,125.29L145.91,125.38L145.95,125.47L146.00,125.56L146.06,125.63L146.13,125.71L146.20,125.77L146.28,125.83L146.36,125.88L146.45,125.92L146.54,125.96L146.64,125.98L146.74,126.00L146.83,126.00L146.93,126.00L147.03,125.98L147.12,125.96L147.22,125.92L147.30,125.88L147.39,125.83L147.47,125.77L147.54,125.71L147.61,125.63L147.66,125.56L147.72,125.47L147.76,125.38L147.79,125.29L147.81,125.20L147.83,125.10z"/></g><g><path style="fill:#ffffff" d="M162.08,188.36L162.06,188.06L162.02,187.76L161.94,187.46L161.84,187.18L161.71,186.90L161.56,186.64L161.37,186.40L161.17,186.17L160.94,185.97L160.70,185.78L160.44,185.63L160.16,185.50L159.88,185.39L159.58,185.32L159.28,185.28L158.97,185.26L158.67,185.28L158.37,185.32L158.07,185.39L157.79,185.50L157.51,185.63L157.25,185.78L157.01,185.97L156.78,186.17L156.58,186.40L156.39,186.64L156.24,186.90L156.11,187.18L156.00,187.46L155.93,187.76L155.89,188.06L155.87,188.36L155.89,188.67L155.93,188.97L156.00,189.27L156.11,189.55L156.24,189.83L156.39,190.09L156.58,190.33L156.78,190.56L157.01,190.76L157.25,190.94L157.51,191.10L157.79,191.23L158.07,191.33L158.37,191.41L158.67,191.45L158.97,191.47L159.28,191.45L159.58,191.41L159.88,191.33L160.16,191.23L160.44,191.10L160.70,190.94L160.94,190.76L161.17,190.56L161.37,190.33L161.56,190.09L161.71,189.83L161.84,189.55L161.94,189.27L162.02,188.97L162.06,188.67z"/><path style="stroke:#000000;stroke-width:0.250;stroke-opacity:0.98" d="M162.08,188.36L162.06,188.06L162.02,187.76L161.94,187.46L161.84,187.18L161.71,186.90L161.56,186.64L161.37,186.40L161.17,186.17L160.94,185.97L160.70,185.78L160.44,185.63L160.16,185.50L159.88,185.39L159.58,185.32L159.28,185.28L158.97,185.26L158.67,185.28L158.37,185.32L158.07,185.39L157.79,185.50L157.51,185.63L157.25,185.78L157.01,185.97L156.78,186.17L156.58,186.40L156.39,186.64L156.24,186.90L156.11,187.18L156.00,187.46L155.93,187.76L155.89,188.06L155.87,188.36L155.89,188.67L155.93,188.97L156.00,189.27L156.11,189.55L156.24,189.83L156.39,190.09L156.58,190.33L156.78,190.56L157.01,190.76L157.25,190.94L157.51,191.10L157.79,191.23L158.07,191.33L158.37,191.41L158.67,191.45L158.97,191.47L159.28,191.45L159.58,191.41L159.88,191.33L160.16,191.23L160.44,191.10L160.70,190.94L160.94,190.76L161.17,190.56L161.37,190.33L161.56,190.09L161.71,189.83L161.84,189.55L161.94,189.27L162.02,188.97L162.06,188.67z"/><text xml:space="preserve" fill="#000000" stroke-width="0" x="157.94" y="189.72" font-size="3.41" opacity="1.00" font-family="MS Shell Dlg">4</text></g></g><g id="PMI2.0"><g><path style="stroke:#000000;stroke-width:0.250" d="M186.30,189.67L198.78,175.83"/></g><g><path style="fill:#000000" d="M199.78,175.83L199.77,175.74L199.76,175.64L199.73,175.54L199.70,175.45L199.66,175.36L199.61,175.28L199.55,175.20L199.48,175.13L199.41,175.06L199.33,175.00L199.25,174.95L199.16,174.91L199.07,174.88L198.97,174.85L198.88,174.84L198.78,174.83L198.68,174.84L198.58,174.85L198.49,174.88L198.40,174.91L198.31,174.95L198.22,175.00L198.14,175.06L198.07,175.13L198.00,175.20L197.95,175.28L197.90,175.36L197.85,175.45L197.82,175.54L197.80,175.64L197.78,175.74L197.78,175.83L197.78,175.93L197.80,176.03L197.82,176.12L197.85,176.22L197.90,176.30L197.95,176.39L198.00,176.47L198.07,176.54L198.14,176.61L198.22,176.66L198.31,176.72L198.40,176.76L198.49,176.79L198.58,176.81L198.68,176.83L198.78,176.83L198.88,176.83L198.97,176.81L199.07,176.79L199.16,176.76L199.25,176.72L199.33,176.66L199.41,176.61L199.48,176.54L199.55,176.47L199.61,176.39L199.66,176.30L199.70,176.22L199.73,176.12L199.76,176.03L199.77,175.93z"/></g><g><path style="fill:#ffffff" d="M187.33,191.98L187.31,191.67L187.27,191.37L187.19,191.07L187.09,190.79L186.96,190.51L186.80,190.25L186.62,190.01L186.42,189.78L186.19,189.58L185.95,189.39L185.69,189.24L185.41,189.11L185.12,189.01L184.83,188.93L184.53,188.89L184.22,188.87L183.92,188.89L183.62,188.93L183.32,189.01L183.03,189.11L182.76,189.24L182.50,189.39L182.25,189.58L182.03,189.78L181.82,190.01L181.64,190.25L181.48,190.51L181.35,190.79L181.25,191.07L181.18,191.37L181.13,191.67L181.12,191.98L181.13,192.28L181.18,192.58L181.25,192.88L181.35,193.16L181.48,193.44L181.64,193.70L181.82,193.94L182.03,194.17L182.25,194.37L182.50,194.56L182.76,194.71L183.03,194.84L183.32,194.95L183.62,195.02L183.92,195.06L184.22,195.08L184.53,195.06L184.83,195.02L185.12,194.95L185.41,194.84L185.69,194.71L185.95,194.56L186.19,194.37L186.42,194.17L186.62,193.94L186.80,193.70L186.96,193.44L187.09,193.16L187.19,192.88L187.27,192.58L187.31,192.28z"/><path style="stroke:#000000;stroke-width:0.250;stroke-opacity:0.98" d="M187.33,191.98L187.31,191.67L187.27,191.37L187.19,191.07L187.09,190.79L186.96,190.51L186.80,190.25L186.62,190.01L186.42,189.78L186.19,189.58L185.95,189.39L185.69,189.24L185.41,189.11L185.12,189.01L184.83,188.93L184.53,188.89L184.22,188.87L183.92,188.89L183.62,188.93L183.32,189.01L183.03,189.11L182.76,189.24L182.50,189.39L182.25,189.58L182.03,189.78L181.82,190.01L181.64,190.25L181.48,190.51L181.35,190.79L181.25,191.07L181.18,191.37L181.13,191.67L181.12,191.98L181.13,192.28L181.18,192.58L181.25,192.88L181.35,193.16L181.48,193.44L181.64,193.70L181.82,193.94L182.03,194.17L182.25,194.37L182.50,194.56L182.76,194.71L183.03,194.84L183.32,194.95L183.62,195.02L183.92,195.06L184.22,195.08L184.53,195.06L184.83,195.02L185.12,194.95L185.41,194.84L185.69,194.71L185.95,194.56L186.19,194.37L186.42,194.17L186.62,193.94L186.80,193.70L186.96,193.44L187.09,193.16L187.19,192.88L187.27,192.58L187.31,192.28z"/><text xml:space="preserve" fill="#000000" stroke-width="0" x="183.22" y="193.33" font-size="3.41" opacity="1.00" font-family="MS Shell Dlg">2</text></g></g><g/><g><g/><g><image x="6.972216" y="6.111113" height="15.707361" width="51.419380" xlink:href="GearBox_files/8960c3bd34296813_image_0.jpg" mask="url(#mask0)"/></g></g><g><g/><g><image x="268.039398" y="187.440399" height="18.243120" width="25.044010" xlink:href="GearBox_files/8960c3bd34296813_image_1.jpg" mask="url(#mask1)"/></g></g><g><g/><g><image x="228.500000" y="190.555618" height="15.593321" width="35.277779" xlink:href="GearBox_files/8960c3bd34296813_image_2.jpg" mask="url(#mask2)"/></g></g><g/><g id="paperID" visibility="hidden" opacity="0.00" transform="scale(0.000100)"><path style="stroke:#000000;stroke-width:0.500;fill:#e6e6e6;fill-rule:evenodd" d="M-2000.00,-2000.00L2297.00,-2000.00L2297.00,2210.00L-2000.00,2210.00zM0.00,0.00L297.00,0.00L297.00,210.00L0.00,210.00z"/><path style="fill:#000000;fill-opacity:0.118" d="M3.00,210.00L297.00,210.00L297.00,3.00L300.00,3.00L300.00,213.00L3.00,213.00z"/></g><g><g><path style="stroke:#000000;stroke-width:0.353;fill:#f0f0ff" d="M16.40,153.73L129.88,153.73L129.88,159.69L16.40,159.69z"/><text xml:space="preserve" fill="#000000" stroke-width="0" x="18.70" y="158.31" font-size="4.17" opacity="1.00" font-family="MS Shell Dlg" font-weight="bold">Item</text><text xml:space="preserve" fill="#000000" stroke-width="0" x="31.64" y="158.31" font-size="4.29" opacity="1.00" font-family="MS Shell Dlg" font-weight="bold">Descrição</text><text xml:space="preserve" fill="#000000" stroke-width="0" x="104.47" y="158.31" font-size="4.34" opacity="1.00" font-family="MS Shell Dlg" font-weight="bold">Quantidade</text><path style="stroke:#000000;stroke-width:0.353" d="M29.35,153.73L29.35,159.69"/><path style="stroke:#000000;stroke-width:0.353" d="M102.18,153.73L102.18,159.69"/></g><g id="Line1"><path style="stroke:#000000;stroke-width:0.353;fill:#ffffff" d="M16.40,159.69L129.88,159.69L129.88,165.65L16.40,165.65z"/><text xml:space="preserve" fill="#000000" stroke-width="0" x="18.70" y="164.27" font-size="3.60" opacity="1.00" font-family="MS Shell Dlg">1</text><text xml:space="preserve" fill="#000000" stroke-width="0" x="31.64" y="164.27" font-size="4.47" opacity="1.00" font-family="MS Shell Dlg">O-Ring carcaça</text><text xml:space="preserve" fill="#000000" stroke-width="0" x="104.47" y="164.27" font-size="3.60" opacity="1.00" font-family="MS Shell Dlg">1</text><path style="stroke:#000000;stroke-width:0.353" d="M29.35,159.69L29.35,165.65"/><path style="stroke:#000000;stroke-width:0.353" d="M102.18,159.69L102.18,165.65"/></g><g id="Line2"><path style="stroke:#000000;stroke-width:0.353;fill:#f0f0ff" d="M16.40,165.65L129.88,165.65L129.88,171.61L16.40,171.61z"/><text xml:space="preserve" fill="#000000" stroke-width="0" x="18.70" y="170.24" font-size="4.25" opacity="1.00" font-family="MS Shell Dlg">2</text><text xml:space="preserve" fill="#000000" stroke-width="0" x="31.64" y="170.24" font-size="4.48" opacity="1.00" font-family="MS Shell Dlg">Parafuso de arruela sextavada M6</text><text xml:space="preserve" fill="#000000" stroke-width="0" x="104.47" y="170.24" font-size="4.38" opacity="1.00" font-family="MS Shell Dlg">4</text><path style="stroke:#000000;stroke-width:0.353" d="M29.35,165.65L29.35,171.61"/><path style="stroke:#000000;stroke-width:0.353" d="M102.18,165.65L102.18,171.61"/></g><g id="Line3"><path style="stroke:#000000;stroke-width:0.353;fill:#ffffff" d="M16.40,171.61L129.88,171.61L129.88,177.57L16.40,177.57z"/><text xml:space="preserve" fill="#000000" stroke-width="0" x="18.70" y="176.20" font-size="4.15" opacity="1.00" font-family="MS Shell Dlg">3</text><text xml:space="preserve" fill="#000000" stroke-width="0" x="31.64" y="176.20" font-size="4.48" opacity="1.00" font-family="MS Shell Dlg">Tampa lateral</text><text xml:space="preserve" fill="#000000" stroke-width="0" x="104.47" y="176.20" font-size="3.60" opacity="1.00" font-family="MS Shell Dlg">1</text><path style="stroke:#000000;stroke-width:0.353" d="M29.35,171.61L29.35,177.57"/><path style="stroke:#000000;stroke-width:0.353" d="M102.18,171.61L102.18,177.57"/></g><g id="Line4"><path style="stroke:#000000;stroke-width:0.353;fill:#f0f0ff" d="M16.40,177.57L129.88,177.57L129.88,183.53L16.40,183.53z"/><text xml:space="preserve" fill="#000000" stroke-width="0" x="18.70" y="182.16" font-size="4.38" opacity="1.00" font-family="MS Shell Dlg">4</text><text xml:space="preserve" fill="#000000" stroke-width="0" x="31.64" y="182.16" font-size="4.50" opacity="1.00" font-family="MS Shell Dlg">Vedação eixo de saída</text><text xml:space="preserve" fill="#000000" stroke-width="0" x="104.47" y="182.16" font-size="3.60" opacity="1.00" font-family="MS Shell Dlg">1</text><path style="stroke:#000000;stroke-width:0.353" d="M29.35,177.57L29.35,183.53"/><path style="stroke:#000000;stroke-width:0.353" d="M102.18,177.57L102.18,183.53"/></g></g><g id="hotspot.0" ident="" onmouseover="ShowHotSpot(evt,&apos;0&apos;)" onmouseout="HideHotSpot(evt,&apos;0&apos;)" onmousemove="ShowToolTip(evt,&apos;0&apos;,&quot; 2&quot;)" opacity="0"><a xlink:href="Vista total.svg"><path style="fill:#00588A;fill-rule:evenodd" d="M292.97,205.47L268.14,205.47L268.14,187.58L292.97,187.58z"/></a></g><g id="hotspot.1" ident="" onmouseover="ShowHotSpot(evt,&apos;1&apos;)" onmouseout="HideHotSpot(evt,&apos;1&apos;)" onmousemove="ShowToolTip(evt,&apos;1&apos;,&quot; 4&quot;)" opacity="0"><a xlink:href="Vista explodida total.svg"><path style="fill:#00588A;fill-rule:evenodd" d="M263.81,206.03L228.69,206.03L228.69,190.64L263.81,190.64z"/></a></g><g id="hotspot.2" ident="" onmouseover="ShowHotSpot(evt,&apos;2&apos;)" onmouseout="HideHotSpot(evt,&apos;2&apos;)" onmousemove="ShowToolTip(evt,&apos;2&apos;,&quot;O-Ring carcaça&quot;)" opacity="0"><path style="fill:#00588A;fill-rule:evenodd" d="M16.40,159.69L16.40,165.65L129.88,165.65L129.88,159.69zM112.17,9.50L113.53,11.19L113.53,13.25L113.24,13.80L111.50,15.39L108.53,15.44L89.91,43.82L89.95,45.20L89.28,45.94L89.07,48.52L88.24,52.96L86.28,59.34L83.80,65.19L81.01,70.18L78.51,74.07L74.63,79.07L71.60,82.15L69.09,84.37L65.34,87.28L60.93,89.81L57.33,91.21L53.71,92.04L49.07,92.04L46.28,91.50L41.87,89.24L39.07,86.21L37.40,83.71L36.56,81.77L35.73,78.71L35.18,74.26L35.18,70.18L35.74,65.18L37.11,59.33L39.63,52.69L41.85,48.24L44.51,43.67L47.98,38.81L52.29,33.96L54.63,31.85L58.16,28.99L62.13,26.57L66.56,24.62L69.82,23.71L72.04,23.43L74.35,23.43L77.68,23.98L81.30,25.65L83.27,27.00L85.20,29.24L86.89,31.72L88.26,34.80L88.79,37.32L89.61,43.52L108.24,14.78L107.11,13.45L107.11,11.28L107.70,10.20L108.70,9.26L109.53,8.98L111.02,8.98zM78.52,25.92L80.19,26.76L82.45,28.38L84.90,32.04L86.29,36.21L86.85,39.82L86.85,45.18L86.29,49.35L84.91,55.18L82.41,61.85L79.07,68.24L76.01,72.95L72.71,77.15L71.18,78.96L67.43,82.43L63.68,85.34L60.10,87.60L54.90,89.62L52.59,90.09L47.68,90.10L44.89,89.27L42.70,87.85L40.77,85.62L39.34,83.16L38.22,79.83L37.68,76.21L37.68,70.18L38.51,64.62L39.34,61.28L41.01,56.29L43.52,50.74L46.56,45.45L49.65,41.04L52.71,37.43L57.32,32.87L62.32,29.27L66.48,27.04L69.82,25.94L72.87,25.37L76.29,25.37z"/></g><g id="hotspot.3" ident="" onmouseover="ShowHotSpot(evt,&apos;3&apos;)" onmouseout="HideHotSpot(evt,&apos;3&apos;)" onmousemove="ShowToolTip(evt,&apos;3&apos;,&quot;Parafuso de arruela sextavada M6&quot;)" opacity="0"><path style="fill:#00588A;fill-rule:evenodd" d="M16.40,165.65L16.40,171.61L129.88,171.61L129.88,165.65zM195.77,92.87L196.46,92.88L197.68,91.85L199.25,91.20L201.03,91.19L202.69,92.03L203.84,93.39L204.35,94.81L204.91,95.09L207.16,98.15L206.86,100.19L205.46,103.52L204.07,105.18L200.94,106.78L199.62,106.77L198.24,105.91L195.44,105.94L194.09,105.35L192.70,103.97L192.39,103.17L192.16,99.51L184.64,95.09L184.34,94.28L184.34,92.67L185.61,90.06L186.76,88.98L187.60,88.69L188.52,88.68zM228.54,111.76L228.98,111.80L231.01,110.46L232.03,110.09L233.81,110.08L234.35,110.37L236.05,111.45L237.14,113.69L238.83,115.34L239.90,117.28L239.63,118.80L238.79,121.29L237.84,122.84L236.33,124.39L233.72,125.67L232.39,125.66L231.02,124.80L228.22,124.83L226.03,123.69L225.17,122.33L224.80,120.39L224.93,118.40L217.42,113.97L217.11,113.45L217.11,111.28L218.12,109.23L219.89,107.66L221.59,107.58zM163.24,149.58L163.69,149.54L166.00,147.95L168.25,147.87L169.63,148.43L171.05,149.78L171.58,151.20L172.71,152.29L174.36,154.80L174.35,156.02L173.79,157.96L172.68,160.18L171.61,161.61L168.44,163.44L166.86,163.41L165.47,162.57L162.66,162.61L161.04,161.74L159.89,160.38L159.61,159.55L159.64,156.22L152.43,152.01L151.86,151.48L151.84,148.50L153.39,146.17L154.80,145.36L156.03,145.36zM195.45,168.18L196.49,168.17L199.06,166.83L201.02,166.76L202.41,167.31L203.56,168.39L204.28,170.16L204.94,170.61L207.16,173.71L207.14,174.33L206.49,176.77L204.91,179.91L203.54,181.04L200.94,182.33L199.61,182.34L198.25,181.46L195.45,181.50L194.90,181.17L194.28,181.20L186.71,189.55L187.09,190.12L187.69,191.48L187.70,192.70L187.13,193.80L185.67,195.11L183.23,195.11L181.60,193.96L180.99,192.31L180.99,191.58L181.44,190.32L183.22,188.77L185.20,188.69L185.73,189.00L186.75,188.98L193.75,181.20L193.80,180.67L193.27,180.35L192.38,179.00L192.38,175.07L185.17,170.94L184.62,170.38L184.34,169.83L184.34,168.51L185.06,166.44L186.49,164.82L187.30,164.25L188.81,164.25z"/></g><g id="hotspot.4" ident="" onmouseover="ShowHotSpot(evt,&apos;4&apos;)" onmouseout="HideHotSpot(evt,&apos;4&apos;)" onmousemove="ShowToolTip(evt,&apos;4&apos;,&quot;Tampa lateral&quot;)" opacity="0"><path style="fill:#00588A;fill-rule:evenodd" d="M16.40,171.61L16.40,177.57L129.88,177.57L129.88,171.61zM169.37,13.97L170.22,15.06L170.75,16.21L170.75,17.13L170.39,18.16L168.73,19.84L165.40,19.81L146.49,46.48L146.19,47.39L148.52,48.70L149.63,49.81L150.18,51.48L150.18,53.24L149.92,54.64L149.06,56.56L149.06,58.16L151.31,61.74L154.91,63.97L156.03,65.63L156.02,69.91L155.46,71.57L153.68,74.79L150.66,77.60L150.74,83.70L152.70,85.07L152.69,87.41L151.57,91.29L149.06,97.95L149.05,99.56L149.91,100.92L150.20,103.26L148.55,105.49L145.66,110.94L144.63,111.85L141.02,112.41L137.13,117.13L132.03,122.31L130.16,122.34L128.79,121.45L128.43,121.46L123.71,124.27L123.25,126.86L122.41,129.07L121.57,130.46L120.18,132.40L118.54,133.82L115.94,135.11L114.06,135.11L110.48,133.13L105.35,132.85L102.16,136.33L100.11,137.33L97.95,137.33L89.65,132.57L88.53,131.47L88.22,130.67L88.23,127.40L89.08,124.34L89.09,123.43L88.23,121.77L86.30,118.43L85.17,115.64L82.88,116.21L81.56,116.22L78.79,114.82L77.14,113.69L76.56,112.06L76.56,108.79L77.31,106.20L78.95,103.39L80.48,101.59L80.46,96.29L81.21,90.09L82.67,84.62L84.54,79.54L86.85,74.63L90.49,68.54L94.38,63.54L98.54,59.09L100.35,57.57L102.41,56.02L106.57,53.24L109.34,51.84L110.48,48.54L112.71,45.49L114.35,44.07L115.91,43.14L117.95,42.85L118.79,43.15L122.16,45.06L122.96,46.20L123.72,48.82L125.93,48.43L132.61,48.17L136.29,44.90L137.86,43.98L139.10,43.73L140.19,43.98L145.19,46.80L145.72,46.86L165.23,19.33L165.20,19.01L164.65,18.68L164.06,17.33L164.05,16.00L164.85,14.58L166.47,13.41L168.25,13.41zM118.16,49.83L116.17,49.90L116.28,49.38L117.90,48.10L118.23,48.12zM123.81,81.02L122.40,84.90L119.91,90.19L117.12,94.62L114.26,98.15L112.41,100.22L112.41,98.79L113.23,95.17L115.21,90.49L117.84,86.18L119.93,83.54L122.87,80.65L123.82,80.10zM83.24,110.22L81.85,111.32L81.84,109.62L82.31,108.15z"/></g><g id="hotspot.5" ident="" onmouseover="ShowHotSpot(evt,&apos;5&apos;)" onmouseout="HideHotSpot(evt,&apos;5&apos;)" onmousemove="ShowToolTip(evt,&apos;5&apos;,&quot;Vedação eixo de saída&quot;)" opacity="0"><path style="fill:#00588A;fill-rule:evenodd" d="M16.40,177.57L16.40,183.53L129.88,183.53L129.88,177.57zM167.13,95.93L171.58,98.42L173.55,100.34L174.63,102.32L175.46,105.93L175.18,111.29L174.62,113.79L173.23,117.67L171.77,120.66L168.52,125.46L165.90,128.12L162.96,130.46L159.07,132.40L156.48,132.87L154.63,132.87L152.39,132.33L148.52,130.06L148.52,131.49L158.69,184.92L159.92,185.08L161.03,185.64L162.42,187.58L162.42,189.09L161.86,190.19L160.39,191.50L157.95,191.50L156.80,190.70L156.03,189.80L156.02,186.86L157.95,185.18L157.96,183.71L147.69,130.09L147.39,129.28L146.03,128.41L144.61,126.22L143.79,123.44L143.79,117.96L144.33,114.89L145.74,110.74L148.67,105.34L150.22,103.28L151.88,101.32L154.54,98.71L156.49,97.32L159.61,95.72L161.75,95.09L164.91,95.09zM164.93,106.74L164.90,110.18L164.65,111.87L163.52,114.63L160.77,118.83L157.99,121.32L155.93,122.33L155.10,122.44L154.91,120.93L154.91,118.52L155.17,116.56L157.04,112.32L158.54,110.21L160.09,108.43L163.15,106.49L164.61,106.19z"/></g><g id="ToolTip" visibility="hidden" opacity="0" transform="translate(0,0)"><rect id="ToolTipShadow" opacity="0.20" fill="black" stroke="none" x="0" y="0" width="30" height="8"/><rect id="ToolTipBG" fill="#ffffe1" stroke="black" x="0" y="0" width="30" height="8"/><text xml:space="preserve" id="ToolTipText" fill="black" x="0" y="0" width="30" height="8">tooltip</text></g></g></svg>